<svg xmlns="http://www.w3.org/2000/svg" viewBox="45 0 1444.48 345.6" fill="#ffffff">
  <path d="M376.97 2.54h8.11v310.71h-8.11zM1422.2 263.46c1.69-15.92 11.35-31.16 28.79-31.16s27.27 15.07 27.78 31.16h-56.57Zm67.24 8.98c.85-24.56-10.33-49.12-38.45-49.12s-39.46 23.2-39.46 46.24c0 24.9 11.69 46.24 39.46 46.24 22.02 0 33.54-11.52 38.11-31.34h-10.67c-3.39 13.21-11.85 22.36-27.44 22.36-20.49 0-28.62-18.8-28.79-34.38h67.24Zm-121.97 40.81h10.67v-46.58c0-18.12 13.21-32.35 32.52-31.34v-10.67c-15.75-.68-27.61 7.62-33.02 21.68h-.34v-20.49h-9.83v87.39Zm-28.13-113.65h-10.67v26.26h-15.24v8.97h15.24v59.79c-.17 14.91 4.74 19.65 18.97 19.65 3.22 0 6.27-.34 9.49-.34v-9.15c-3.05.34-6.1.51-9.15.51-7.62-.51-8.64-4.57-8.64-11.52v-58.94h17.78v-8.97h-17.78V199.6Zm-103.51 113.65h10.67v-50.98c.34-17.11 10.5-29.98 27.44-29.98s22.19 11.35 22.19 26.42v54.54h10.67v-56.23c0-20.83-7.45-33.7-32.01-33.7-12.37 0-24.05 7.12-27.94 17.62h-.34v-15.07h-10.67v87.39Zm-79.33-49.79c1.69-15.92 11.35-31.16 28.8-31.16s27.27 15.07 27.77 31.16h-56.57Zm67.24 8.98c.85-24.56-10.33-49.12-38.44-49.12s-39.46 23.2-39.46 46.24c0 24.9 11.69 46.24 39.46 46.24 22.02 0 33.53-11.52 38.1-31.34h-10.67c-3.39 13.21-11.86 22.36-27.44 22.36-20.5 0-28.62-18.8-28.8-34.38h67.24Zm-88.09-43.53c-3.05-25.4-25.74-39.12-48.61-39.12-38.11 0-57.08 29.98-57.08 63s18.97 63.01 57.08 63.01c28.28 0 47.08-18.97 50.3-48.61h-11.52c-2.2 21.51-16.43 38.78-38.78 38.78-32.01 0-45.56-26.76-45.56-53.18s13.55-53.18 45.56-53.18c17.61 0 33.02 10.67 37.09 29.3h11.52Zm-199.01 84-3.73 9.99c-3.56 8.13-5.76 13.72-15.24 13.72-2.37 0-4.74-.34-7.28-.85v8.98c1.69.67 3.89.67 8.13.85 13.38 0 16.94-4.24 23.04-18.97l37.94-100.77h-10.67l-26.93 74.52-28.8-74.52h-11.35l34.89 87.05ZM878.35 199.6h-10.67v26.26h-15.24v8.97h15.24v59.79c-.17 14.91 4.75 19.65 18.97 19.65 3.22 0 6.27-.34 9.49-.34v-9.15c-3.05.34-6.1.51-9.15.51-7.62-.51-8.64-4.57-8.64-11.52v-58.94h17.78v-8.97h-17.78V199.6Zm-44.97 9.83h10.67v-17.11h-10.67v17.11Zm0 103.82h10.67v-87.39h-10.67v87.39Zm-51.18 0h10.67v-46.58c0-18.12 13.21-32.35 32.52-31.34v-10.67c-15.75-.68-27.61 7.62-33.03 21.68h-.33v-20.49h-9.83v87.39Zm-17.05-87.39h-10.67v45.9c0 17.78-7.96 35.06-26.26 35.06-16.93 0-22.86-8.3-23.37-24.05v-56.9h-10.67v56.74c0 20.32 8.64 33.2 30.66 33.2 13.04 0 24.56-6.61 30.15-18.29h.34v15.75h9.82v-87.39Zm-82.93 27.44c-2.37-19.99-16.77-29.98-35.4-29.98-26.76 0-41.32 21.17-41.32 46.24s14.57 46.24 41.32 46.24c19.48 0 33.2-12.87 36.08-33.88h-10.67c-1.35 14.57-12.19 24.9-25.4 24.9-20.49 0-30.66-18.63-30.66-37.26s10.16-37.26 30.66-37.26c13.89 0 21.85 7.96 24.73 21h10.67Zm-151.88 10.16c1.69-15.92 11.35-31.16 28.79-31.16s27.27 15.07 27.78 31.16h-56.57Zm67.24 8.98c.85-24.56-10.33-49.12-38.45-49.12s-39.46 23.2-39.46 46.24c0 24.9 11.69 46.24 39.46 46.24 22.02 0 33.54-11.52 38.11-31.34h-10.67c-3.39 13.21-11.85 22.36-27.44 22.36-20.49 0-28.62-18.8-28.79-34.38h67.24Zm-181.07 1.01c-1.35 29.47 19.65 42.34 48.27 42.34 42.85 0 46.24-26.25 46.24-34.55 0-19.82-14.23-27.27-31.33-31.84l-29.47-7.28c-9.83-2.37-18.29-7.11-18.29-18.46 0-17.95 14.57-24.05 30.32-24.05 17.11 0 32.35 9.32 33.02 27.78h11.52c.17-24.73-20.83-37.6-44.71-37.6-34.04 0-41.67 22.19-41.67 34.04 0 18.8 13.04 25.57 27.27 29.13l26.93 6.61c11.18 2.71 24.9 8.13 24.9 21.85 0 17.62-19.31 24.56-32.01 24.56-22.02 0-39.97-7.62-39.46-32.52h-11.52Zm990.18-149.98h10.67V76.89c0-18.12 13.21-32.35 32.52-31.33V34.89c-15.75-.68-27.61 7.62-33.02 21.68h-.34V36.08h-9.83v87.39Zm-79.42-49.8c1.69-15.92 11.35-31.16 28.79-31.16s27.27 15.07 27.78 31.16h-56.57Zm67.24 8.98c.85-24.56-10.33-49.12-38.45-49.12s-39.46 23.2-39.46 46.24c0 24.9 11.69 46.24 39.46 46.24 22.02 0 33.54-11.52 38.11-31.33h-10.67c-3.39 13.21-11.85 22.36-27.44 22.36-20.49 0-28.62-18.8-28.79-34.38h67.24Zm-167.87 40.82h9.83v-16.6h.33c4.91 11.86 17.11 19.14 31.16 19.14 26.59 0 39.3-21.51 39.3-46.24s-12.7-46.24-39.3-46.24c-13.04 0-25.74 6.61-30.32 19.14h-.33V2.54h-10.67v120.93Zm69.94-43.7c0 18.12-8.3 37.26-28.62 37.26-22.69 0-30.65-19.14-30.65-37.26s7.96-37.26 30.65-37.26c20.32 0 28.62 19.14 28.62 37.26m-120.96 43.36-3.73 9.99c-3.55 8.13-5.76 13.72-15.24 13.72-2.37 0-4.74-.34-7.28-.85v8.98c1.69.67 3.89.67 8.13.85 13.38 0 16.94-4.23 23.04-18.97l37.94-100.77h-10.67l-26.93 74.52-28.8-74.52h-11.35l34.89 87.05Zm-41.51-84.01C1131.06 13.72 1108.37 0 1085.5 0c-38.11 0-57.08 29.98-57.08 63.01s18.97 63 57.08 63c28.28 0 47.08-18.97 50.3-48.61h-11.52c-2.2 21.51-16.43 38.78-38.78 38.78-32.01 0-45.56-26.76-45.56-53.18s13.55-53.18 45.56-53.18c17.61 0 33.02 10.67 37.09 29.3h11.52Zm-176.82 84.35h10.67V2.54h-10.67v120.93Zm-75.66-60.64c.34-14.23 10.16-20.32 23.38-20.32 12.53 0 22.86 3.56 22.86 17.95 0 9.66-4.91 10.84-13.72 11.86-23.04 2.71-46.92 3.56-46.92 28.12 0 17.61 13.21 25.57 29.3 25.57s24.39-6.43 31.84-17.78h.34c0 9.15 1.69 15.24 12.53 15.24 2.88 0 4.57-.17 6.95-.68v-8.97c-.85.34-2.21.67-3.39.67-4.23 0-6.27-2.37-6.27-6.43V61.65c0-23.37-16.77-28.11-32.18-28.11-19.99 0-34.38 8.81-35.4 29.3h10.67Zm46.24 26.77c.17 17.11-14.23 27.44-30.49 27.44-9.99 0-19.48-6.61-19.48-17.28 0-17.11 22.53-16.94 40.65-20.16 2.88-.51 7.62-1.35 8.98-3.89h.34V89.6Zm-143.82 33.87h10.67V72.49c.33-17.11 10.5-29.98 27.44-29.98s22.19 11.35 22.19 26.42v54.54h10.67V67.24c0-20.83-7.45-33.7-32.01-33.7-12.37 0-24.05 7.11-27.95 17.61h-.33V36.08h-10.67v87.39Zm-54.03-80.96c20.49 0 30.66 18.63 30.66 37.26s-10.16 37.26-30.66 37.26-30.66-18.63-30.66-37.26 10.16-37.26 30.66-37.26m0-8.97c-26.76 0-41.33 21.17-41.33 46.24s14.57 46.24 41.33 46.24 41.32-21.17 41.32-46.24-14.57-46.24-41.32-46.24m-64.77-13.89h10.67V2.54h-10.67v17.11Zm0 103.82h10.67V36.08h-10.67v87.39ZM637.05 9.83h-10.67v26.25h-15.24v8.97h15.24v59.79c-.17 14.91 4.74 19.65 18.97 19.65 3.22 0 6.27-.33 9.49-.33v-9.15c-3.05.33-6.1.51-9.15.51-7.62-.51-8.64-4.57-8.64-11.52V45.06h17.78v-8.97h-17.78V9.83Zm-90.45 53c.34-14.23 10.16-20.32 23.37-20.32s22.86 3.56 22.86 17.95c0 9.66-4.91 10.84-13.72 11.86-23.03 2.71-46.91 3.56-46.91 28.12 0 17.61 13.21 25.57 29.3 25.57s24.39-6.43 31.84-17.78h.33c0 9.15 1.69 15.24 12.54 15.24 2.87 0 4.57-.17 6.94-.68v-8.97c-.85.34-2.2.67-3.39.67-4.23 0-6.27-2.37-6.27-6.43V61.65c0-23.37-16.77-28.11-32.18-28.11-19.99 0-34.38 8.81-35.4 29.3h10.67Zm46.23 26.77c.17 17.11-14.23 27.44-30.48 27.44-9.99 0-19.48-6.61-19.48-17.28 0-17.11 22.53-16.94 40.65-20.16 2.88-.51 7.62-1.35 8.98-3.89h.33V89.6Zm-170.4 33.87h11.52V21.17h.34l70.45 102.3h12.87V2.54h-11.52v102.3h-.34L435.31 2.54h-12.87v120.93Zm-109.59 48.5-.83-.1-2.21-6c1.03-1.33 1.59-3.46-.04-4.54-2.16-.85-8.24-7.81-10.05-3.3-.78.28-5.59.56-5.97 1.45-2.31-3.66-4.27-7.55-5.71-11.87.94-5.02 14.23-11.28 14.23-11.28s-3.77-5.42-5.28-8.49c-.67 1.49-1.28.85-2.74 1.52 7.38-13.12 8.95-30.38-.82-42.77-1-2.15-.54-4.99-1.52-7.09-1.69-2.24-2.86-6.64-5.86-7.1-.01 3.9-.41 7.71 1.47 11.32 2.01 2.51-2.73 4.65-4.21 2.66 2.83-.33 3.31-.89 2.33-2.49-12.2-2.74-19.01 5.83-30.65 7.18-1.02 0-1.94.35-2.52 1.29-7.17 9.66 8.92 3.06 10.32 9.47-2.69 2.22-3.06.76-5.57.11-3.62.14-7.14 1.27-2.62 4.33-2.76 4.33-2.62 5.86-8.23 6.23 2.43 3.43 1.91 8.4 2.54 12.3-4 .75-6.71 2.68-6.8 6.95-1.8.4-3.74-.54-5.02 1.41-2.52-2.08-5.41-2.47-8.42-2.51-1.46-1.09-5.02-3.66-8.86-5.63.76-2.83 1.48-5.49 2.16-7.98 1.12-.71 5.15-3.28 6.2-3.94-.54-1.09-2.66-5.38-3.24-6.54 7.19-24.73 9.52-26.11 13.16-26.65l.2-.69-13.3-4.26-.23.87c3.36 2.44 4.45 6.48 2.92 11.23-3.55-1.53-5.58-4.9-5.19-7.9l-.88-.25-4.45 14.76.71.21c1.75-2.53 4.8-3.95 8.32-3.36-4.11 13.09-22.62 9.01-19.31-2.11 2.36-4.58 6.84-1.64 4.68 3.16 10.38-3.64 4.26-18.58-4.62-9.67 2.94-6.02 4.61-10.74.92-16.56-4.78 3.08-6.01 8.64-5.09 16.05-5.86-13.41-16.09.4-7.77 7.39-1.51-9.95 10.76-3.37 2.46 4.64-7.92 5.61-17.66-.84-17.94-10.73 4.57.4 8.07 3.12 8.54 6.51.08 0 .84.03.84.03l.57-16.88s-.96-.05-1.04-.05c-.71 3.42-4.43 6.32-9.13 6.4.32-5.2 3.3-9.26 7.17-9.93v-.96h-19.48v.96c3.86.67 6.85 4.72 7.17 9.93-4.7-.09-8.41-2.98-9.13-6.4-.08 0-1.04.05-1.04.05l.57 16.88s.76-.03.84-.03c.47-3.39 3.96-6.11 8.54-6.51-.28 9.89-10.03 16.34-17.94 10.73-8.31-8.02 3.97-14.59 2.46-4.64 8.32-7-1.93-20.78-7.77-7.39.92-7.41-.31-12.97-5.09-16.05-3.69 5.82-2.02 10.54.92 16.56-8.9-8.92-15 6.05-4.62 9.67-2.16-4.8 2.32-7.74 4.68-3.16 3.31 11.12-15.2 15.18-19.31 2.11 3.52-.59 6.57.83 8.32 3.36l.71-.21-4.45-14.76-.88.25c.38 3-1.64 6.37-5.19 7.9-1.53-4.74-.44-8.79 2.92-11.23l-.23-.87-13.3 4.26.2.69c3.64.54 5.97 1.92 13.16 26.65l-3.24 6.54c1.02.65 5.1 3.24 6.2 3.94.62 2.27 1.28 4.68 1.96 7.24.03-.01.05-.03.08-.04-.03.09-.06.12-.08.04-17.89 8.36-13.84 14.04-27.6 12.41-1.23 2.85-2.39 5.67-5.19 7.6-.52-4.36-2.46-7.75-5.03-10.84-1.27-1.48-3.01.16-4.91.31-3.73 8.14-6.31.79-12.9 5.05.26 3.8.84 7.57 2.92 11.07-4.9-.35-8.94-1.67-12.17-3.97-14.63 16.34-29.91 32.04-42.42 50.02-6.68 8.83-24.55 3.69-19.83-8.47 2.16-8.88 14.99-6.99 14.18 1.82 6.34-7.05 2.27-14.06-7.42-12.49 8.89-3.85 14.23 3.43 22.25-6.57-6.12.15-11.32-1.79-17.42-.38 7.73-4.63 18.34 2.24 24.93-10.53-5.75.61-10.94 3.02-16.89 3.9 35.7-34.03 1.35-35.71 5.72-50.43-2.79 2.37-4.4 4.74-3.11 7.92-8-3.34-19.85-2.36-23.09-12.07-.78 13.84 5.3 12.84 15.74 15.69-4.82-.58-9.58-.61-14.09-2.28.93 6.2 5.64 7.52 11.17 6.93-5.42 3.01-4.19 10.73 1.33 13.38-3.52-20.02 26.45-13.16 12.77 5.23-6.35 9.47-15.55 16.51-23.27 24.78-1.46-2.52-2.98-5.04-6.35-4.69 5.88 6.79-.76 14.18-2.32 21.19-2.27 8.66 5.38 16.04 13.58 17.05-3.27 3.87-3.53 7.32-1.01 10.49 2.47-12.72 20.92-9.85 22.66-23.62.31-1.62 1.09-2.89 2.9-3.63-8.32 9.4 11.68 29.3-7.11 31.63-2.68.08-3.35 2.9-1.86 4.9-7.76-.39-9.9 2.56-11.09 9.88 3.42-.89 6.6-1.71 9.82-2.54-3.38 8.86-11.05-.52-9.79 15.24a92.35 92.35 0 0 0 8.95-4.87c2.77 8.84-14.07 5.02-1.42 19.13.8-2.63 4.18-8.03 5.9-9.23-1.56 4.44-1.19 9.58 3.79 11.57.23-1.19.44-2.23.64-3.28.23 0 .19 0 .42-.01.72 2.93.82 7.04 3.67 8.73.94.37 1.45.9 1.76 1.88.52 1.64 2.04 2.08 3.52 2.27 1.86.39 2.33-1.73 3.7-2.58.39 2.33 3.14 2.7 4.49 4.69 1.04-11.48-14.19-7.31-10.7-14.9 1.35 4.62 5.67 3.61 8.69 5.51 1.17 1.92 4.02 3.51 5.48.84 1.42 1.07 2.7 2.03 3.95 2.97-2.97-13.64-10.04-5.2-14.49-12.36 3.1.14 6.41 4.74 9.76 1.59 1.8 1.86 3.19 4.03 4.55 6.22.55-4.36-1.08-7.69-4.51-10.11-3.87-2.37-9.12 1.84-12.43-2.89-4.52-5.58-4.39-13.42-2.04-19.87 2.16-4.97 8.18-6.82 10.95-11.53-.77 4.15-.38 11.39 4.32 12.73-1.14-7.72 4.34-14.67 5.46-22.13 1.43-1.89 1.5-3.36.2-5.39-2.34-3.83-2.98-8.45-5.56-12.23-4.01-5.62-8.94-5.77-.77-11.69-4.96 7.7-.91 4.9 3.37 12.15.79-2.44 4.44-5.64-.12-5.62-7.2-3.53 9.37-12.72 13.12-12.96 3.69-.29 8.87.13 11.67-3.52-1.75-3.33-3.45-3.8-.47-7.25-2.01-1.18-3.79-2.58-4.14-5.22-1.92.67-3.61 1.26-5.6 1.95 1.81-2.05 7.14-6.19 7.72-1.6.12 2.58 2.68 3.04 4.67 3.68-1.45 2.11-3.87 4.24-1.67 6.71 1.54 1.62 2.5 4.66 4.86 5.06.64-2.39 1.26-4.69 1.89-7.05 5.24 5.5-5.26 8.56 9.14 13.5-.52-2.97-.99-5.85-.61-8.92 6.94 5.8-2.99 9.44 13 11.34-1.78-2.12-2.19-4.45-2.85-6.82 2.67.44 4.82 2.99 6.55 4.91 1.65 2.5 2.86 3.87 6.62 1.43.17.44.21 1.04.53 1.29 1.69 1.28 1.01 2.84.98 4.55h.46c2.22-2.24 2.38-4.82 1.69-7.63-1.54-5.3-8.01-1.08-10.27-6.49 3.05 2.08 6.09 3.29 9.44 1.55 1.88 1.77 2.66 3.06 3.57 5.56 1.53-5.7-.23-11.53-6.25-9.81-1.87.67-2.64.52-4.53-1.12 2.8.97 4.65-.46 6.43-1.74.39.5.61 1.07.87 1.08 1.69.1 2.79 1.12 3.84 2.37.57-4.88-4.29-8.82-9.17-7.59-1.22 5.98-6.24 2.6-10.22 1.8-6.19-3.62-9.43-10.55-14.9-15.07.55-6.71-5.04-12.05-11.75-11.66 6.05-2.64 13.24 2.56 13.71 8.88.23 2.58 1.8 4.21 3.44 6.14 20.45-41.13 86.47-51.88 124.38-25.78 3.23 2.96 6.74 5.38 10.09 8.49 1.31-3.93.53-8.6 6.39-6.22l1.1-.75c-1.2-3.32 1.29-7.07 4.77-7.32v2.59c-1.53.25-2.71 1.73-2.47 3.32 1.17-.25 2.23 1.29 1.6 2.3 1.09.62 2.64.36 3.49-.53.97.05 1.95.15 2.92.24-1.33 3.17-5.96 4.25-8.56 1.93h-.01c.5.7-1.74 7.69-1.84 8.52a2.2 2.2 0 0 1-2.23 1.64c.42.68.76 1.25 1.14 1.87 1.66-.93 3.98-.87 3.76-3.22.32-1.33-.54-7.47 1.36-6.92.77 2.33-.68 5.02 1.04 7.33 5.47-1.35 3.07-6.3 9.7-7.6 2.64-.24 8.19-1.51 9.61 1.12-5.8-1.55-13.28.04-14.55 6.66-6.03 1.42-11.09 5.72-17.51 5.72-5.1.28-6.47 6.4-6.69 10.6-.85 4.82-1.11 9.82-3.25 14.28-1.05 1.71-.17 3.67.41 5.25 1.96 1.03 3.35 7.8 3.63 10.23-.01 4.42 7.57 5.9 10.65 8.65.86-5.54-9.63-3.97-8.16-11.7 1.86 5.12 5.94 6.18 10.4 8.7-1.4-5.18-1.82-13.8-9.05-12.72-2.79-3.88 1.29-4.1-.02-8.72 2.07.65 3.06 1.37 3.61 2.66-.65-.21-1.21-.39-2.1-.67.24 3.28 3.08 4.05 5.27 6.31-.37-5.37-.85-8.76-5.84-11.38-2.83-2.59.43-8.56.24-12.14-.09-1.06 6.68-4.43 7.72-4.13 5.02.66 10.28-.15 15.14 1.12 4.85 1.53.69-9 8.52-3.46-5.67-1.67-2.22 4.52-6.32 4.84-2.86.03-5.29-.25-8.27-.34 10.29 22.91 33.13 16.19 39.41 36.64 5.25-4.64 1.68-4.56.21-9.41 11.86 7.91-11.04 17.08-2.44 30.93-.54-1.56 4.84-8.05 5.45-9.37.98-1.45 2.65-1.55 3.72-.49l1.71-3.56c-3.19-1.75 2.58-9.24 3.01-11.37.6-1.29 1.96-1.89 3.03-1.36l1.6-4.44c-3.02-.81-.76-8.14-1-10.18-4.24-3.83-7.72-8.64-11.01-13.09l2.03-.35c-.23 1 .13 2.1.98 2.68 1.46.58 7.04 5.96 8.79 4.68l.88 2.38c-1.41.38-1.66 2.36-1.67 3.7.75.63 1.56 1.23 2.29 1.89.1-.48.03-2.66.46-2.98.66.87 1.87.88 2.6.18.68.36-.17 5.09-.09 5.69.82.89 1.6 1.81 2.33 2.77-.31-2.17 2.36-10.48-1.33-10.89ZM253.05 94.7c.77-.08 1.42-.15 2.28-.24-1.5-1.09-.03-2.58 1.21-1.52 2.97 2.3-2.98 6.07-3.49 1.77Zm-118.9 21.65-6.26-3.98 3.3-6.66 9.02 3.21-6.06 7.43Zm20.43-5.17c-9.79 1.98-11.86-8.79-2.04-10.58 9.79-1.98 11.86 8.79 2.04 10.58Zm22.12-.84-9.65-6.8 9.66-6.82 9.65 6.8-9.66 6.82Zm30.73-3c-1.15 6.89-16.6 3.91-15.11-2.91 1.15-6.89 16.6-3.91 15.11 2.91Zm5.8 1.57 9.02-3.21 3.3 6.66-6.26 3.98-6.06-7.43Zm74.3-31.63c1.77 1.97 2.55 4.1 2.55 6.52-1.71-.59-2.45-2.46-2.55-6.52Zm-8.12 12.76c-2.39 1.63-4.53 4.04-6.96.78-.56.11-1.03.21-1.6.32 3.6-5.59 3.31-4.62 8.56-1.1Zm-19.93 20.25c1.59.56 3.1 1.41 4.71-.19-1.55 0-2.02-1.09-2.46-2.12-.75-5.27 7.85-3.41 11.05-3.03 8.07 4.91 21.8 1.78 17.03-9.89 3.73 2.3 2.45 8.7-.38 11.2-7.46 4.04-14.53 1-21.97 8.9-1.14-3.61-5.42-3.41-6.96.57-1.42.09-1.79.07-3.14.16-.25-2.1 1.45-3.6 2.13-5.58Zm28.13 34.57c-.33.41-1.02 1.28-1.02 1.28-6.2-7.08-27.14-15.21-36.19-13.89l.17-1.61-.06.03 3.44-2.18-2.94-2.44c.03-.34-1.88-12.26-1.88-12.26l5.19-.15s-1.85 2.17-1.93 3.89c.29.2.54.5.72.86 1.04-.44 2.15-2.59 2.15-2.59l.49 7.04s-1.44-2.03-2.49-2.39c-.08.26-.19.5-.38.69 1.5 4.68 8.32 4.95 8.33.95-.23-2.08-2.53-1.74-2.4.46-3.74-2.97 1.32-7.71 3.39-2.94-.27-2.75-.03-4.3 2.1-5.65 1.41 1.78 1.21 3.45-.32 6.12 4.59-4.26 6.34 2.96 2.03 4.03 2.1-3.8-3.95-2.6-1.73 1.37 2.03 3.11 6.97 2.65 8.7-.73-.12-.2-.21-.42-.26-.65-1.72-.33-4.29 1.13-4.29 1.13l2.39-6.49s.99 2.78 2.43 3.64c.26-.25.59-.41.95-.5.27-1.71-1.45-4.39-1.45-4.39l7.97 3.08s-3.15.8-4.16 2.23c.2.3.32.64.33.99 1.66.33 4.35-1.03 4.35-1.03l-2.86 6.31s-.83-2.77-2.31-3.68c-.19.14-.41.23-.64.3-1.13 3.66 2.18 7.22 5.81 6.32 4.39-1.34.91-6.34-.28-2.15-2.38-3.67 4.02-7.72 4.33-1.58.78-2.96 1.82-4.3 4.1-4.66.59 2.4-.34 3.69-2.47 5.51 4.93-2.08 5.16 4.76.39 4.4 1.66-1.53.2-3.29-1.42-1.94-2.85 2.97 2.48 7.23 6.65 5.11 0-.26.07-.52.18-.76-1.04-.72-3.49-.8-3.49-.8l5.11-3.78s-.61 2.29-.12 3.49c.37-.06.76-.02 1.12.13 1.1-1.1 1.16-4.07 1.16-4.07l3.81 4.75s-9.57 4.41-11.26 5.69l-2.66-.26 1.31 3.74h-.08Zm20.59 19.44c-1.2-.11-2.2.94-1.8 2.24a.697.697 0 0 1-.34-.12l-5.6-3.82c-.36-.25-.47-.75-.28-1.16 1.06-.04 2.2-.59 2.05-1.86.43.55 6.46 3.76 5.97 4.73Z"/>
  <path d="M240.62 137.09c-.43-.51-.53-1.24-.16-1.78-.68-.14-1.81 6.17-2.04 6.53.46.44.86.87 1.24 1.31.59.17 1.59.51 1.8-.35l1.44-5.56c-.67.61-1.74.66-2.28-.14Zm-84.25 157.59c-15.82-6.27-27.33 9.07-14.41 11.65-14.18.62-11.44-19.34-17.29-18.15 5.13 5.53 5.13 15.82 9.85 18.67 9.53 4.05 19.44 4.71 29.65 4.24-5.14-4.56-6.39-10.31-7.79-16.41Zm48.34 11.44c12.9-2.56 1.47-17.92-14.41-11.65-1.4 6.1-2.65 11.85-7.79 16.41 10.21.47 20.11-.19 29.65-4.24 4.73-2.85 4.72-13.15 9.85-18.67-5.85-1.18-3.12 18.77-17.29 18.15Zm103.76-123.79c-.02.31.09.59.28.78.72-.61 1.85-.35 2.37.37.83-.24.55-2.8.72-3.41-.94-1.01-1.92-1.98-2.97-2.89l-.41 5.14Zm-3.98 18.99c.08-.73 4.07-7.33 3.03-7.9-.72.14-1.55-.25-1.86-.94-.97-.4-3.5 6.78-3.94 7.23 1.27-.78 2.88.52 2.45 1.98.13-.09.24-.21.32-.38Z"/>
  <path d="M349.74 170.92c-3.32 1.01-4.68 3.77-5.92 6.89-8.32-12.98-24.15-21.94-26.56-37.82 1.86-12.7 18.69-9.8 15.27 3.44 8.73-4.69 4.51-13.42-3.71-14.96 8.93.71 13.82 8.26 19.92-4.29-5.28 1.92-13.33.56-16.11.15 11.12-1.51 17.17-1.4 16.83-15.22-3.79 8.27-14.28 8.43-21.9 11.11.49-3.67-.66-5.92-3.62-7.11 3.02 20.18-35.25 13.6 6.81 57.16-5.16-2.84-11.16-1.89-16.16-5.06 3.89 10.49 10.47 8.68 19.07 12.33-9.23-.05-12.1 8.96-5.26 13.28-1.78-6.96 7.77-11.75 12.55-6.31 10.92 14.02-9.06 33.5-26.79-1.64.13 1.94-1.23 3.68-3.12 3.1l-2 5.56c4.06 1.51-2.17 9.34-2.6 11.6-.71 1.5-2.28 1.96-3.47 1.13l-1.96 4.07c2.46 2.25-4.14 8.64-4.89 10.62-.77 1.14-2.14 1.53-3.11.92l-.71 1.47c.15.19.25.31.27.29 4.48 5.3 6.53 9.39 5.33 15.02 3.63-3.12 5.26-11.76 2.35-16.47 3.29 3.44 8.07 5.89 9.95 10.27 1.89 7.97.44 15.88-4.97 22.17-2.3 2.31-1.68 3.52-1.98 6.35-1.53 4.49-6.9 4.86-8.93 8.67-1.42 3.34-3.77 6.07-4.79 9.57 6.1-.96 5.05-9.47 10.83-11.2-2.34 3.57-4.61 6.82-6.21 10.96 4.82-1.25 13.92-2.56 12.4-9.36-1.14-3.14 1.9-5.2 1.75-8.2 3.82-1.37 2.93-2.91 4.76-5.89.85 1.8.89 3.32.78 5.28-.47-.98-.76-1.59-1.1-2.29-2.7 3.67-.44 7.23-.82 11.16 13.31-11.92-4.37-11.84 9.45-38.26 3.18-5.26-9.04-4.67-9.95-16.56-.85-5.14 3.66-9.35 4.62-14.26 5.32 9.47 23.91 9.15 21.37 21.24 3.74-2.82 3.58-7.99 2.1-11.87 19.18-6.9 4.04-24.55 10.22-37.05Z"/>
  <path d="M292.66 216.35c.43.18.8.48.96.94.31.05.65-.11.86-.43.15-.46 4.87-6.65 4.34-7.08-.53-.17-1.01-.53-1.17-1.08-.45-.43-1.11-.64-1.55.02-.17.79-5.44 6.73-4.09 7.49.22 0 .44.04.65.14Zm-2.77 1.23c.08.14.16.27.24.4l.08-.17-.32-.23Zm-185.58 26.87c1.92.35 4.05.72 5.91-.12-2.9-4.93-5.74-9.78-8.7-14.81-5.15 6.34-14.09 2.47-19.71-1.42-4.58-3.38 5.31-8.63 2.13-19.87 4.4 7.09-3.59 13.23 8.75 17.2-3.57-5.31-3.09-12.16-4.43-18.23-.16-1.05-.67-2.09.17-3.14.42-1.45.52-3.43-1.47-3.64-13.8-7.92-11.01-4.07-24.44-5.91-3.29 5.82 3.71 11.01 2.6 16.71-.99 2.79 3.24 2.67 3.2 5.39.94 4.24.48 10.18-4.36 11.82-2.41 1.45-.48 4.52 1.62 5.24-4.28 7.71-1 8.94 5.54 12.8.04-2.97.09-5.57 1.32-8.1 9.02 5.99-4.42 6.99 13.47 14.25-1.81-3-1.77-6.25-2.04-9.25 1.69.4 3.34.79 5.02 1.18 1.94 8.28 6.42 9 14.31 8.27-2.82-2.81-3.62-6.46-5.68-9.38 2.38.8 4.74-.82 6.78 1.01Zm161.12-46.12c-2.45.39-3 1.43-2.56 3.81-2.73 5.89-2.8 13.05-7.46 18.02 10.02-2.83 7.8-6.63 10.24-14.24-.5 10.34.04 10.2 3.79 17.27-7.73 5.43-20.35.87-24.59 11.42 1.18 1.35 2.69-.02 4.26.35-1.01 1.22-1.42 2.65-3.03 3.71.35-1.01.57-1.65.78-2.28-2.89-.97-5.27 5.65-7.43 7.78 20.64-4.15-2.5-10.21 38.19-14.95 7.19-3.38-6.8-8.69 7.32-17.62 1.26-4.88 2.02-9.91 4.67-14.32.63-1.45-.36-3.49-1.69-4.5-6.19 4.36-9.12-2.67-22.49 5.56Zm-208.4-84.84c.09-1.37.18-2.69.27-4.15-1.55-.27-2.98-.52-4.58-.79 1.87-1.41 4.14-1.76 5.98-1.05-1.58 6.67 1.25 11.36 8.37 11.73 2.18-3.24 4.13-3.73 6.25-1.45-9.41-.97-2.43 8.97 2.38 5.6 1.28-1.84 5.34-3.47 4.16-6.07-7.46-5.45-6.94 2.59-8.33-10.87-.31-.03-.66-.06-.95-.08-.7 2.56-3.21 4.54-5.27 2.12-.71-.81-1.34-1.55-2.51-1.76 5.11-4.08 11.18 1.81 10.81-7.78 5.69 7.13 6.19-.79 11.82-.91-.26 5.65-1.43 5.22-6.29 4.9 1.59 1.22 7.66 7.27 4.12 7.84-1.48-3.79-3.96-7.47-8.16-8.23-3.39 3.39-1.73 7.18-1.2 11.09 3.01-1.03 5.59-2.97 8.77-2.73 1.06 3.12-3.94 4.84-1.1 7.93 4.86.79 10.13.82 8.58-6.06-1.58-.94-3.15-1.59-4.79.15.09-2.67 2.7-3.13 4.73-2.62 4.48-4.77 2.99-11.08-1.83-14.91 1.27-1.87 2.61-3.17 4.93-3.63-.78 1.61-2.42 2.21-2.79 3.68 1.07 1.32 2.07 2.54 3.06 3.76 2.59-1.14 3.25-5.19 1.42-9.32-3.18.82-8.79 3.47-8.79 3.47-2.74-1.05-1.56.31-1.17 1.63-8.77 1.61-17.37 3.91-24.33 9.73-1.25.91-1.82.36-2.23-1.41-.83-1.27-1.21.92-1.33 1.47 0 0-5.27 1.28-7.56 3.24 1.62 2.68 3.91 6.89 7.55 5.49Z"/>
  <path d="M91.43 110.83c.81 3.97-.32 7.28-2.92 10.39 3.9 6.97 10.5 12.26 13.42 19.8 6.51-12.16-.44-16.25-9.4-22.91 5.75 2.06 11.54 4.03 14.74 9.5.68-10.43-3.94-15.64-14.07-17.25l.09-.42c4.22-.2 8.42-.19 12.37 2.39-1.04-3.23-3.67-8.02-7.49-7.61 1.37-2.87 1.35-4.78-.03-6.5-.65 2.01-1.92 3.26-4 3.33.45 3.62-.75 6.62-2.72 9.28ZM59.21 134.6c1.2 2.91 2.99 6.3 5.96 7.51-1.53-5.75 2.35-10.75 4.16-15.95.03 11.98-6.77 18.47 9.65 22.88-4.38-7.05-1.48-15.61-4.25-22.85-2.64-1.51-5.62-1.89-7.41-4.11-.49-1.04-1.39-1.43-2.34-1.63-3.09-.67-5.94-1.69-7.49-4.26-2.26.71-3.62.62-5.69-.24-.18 2.56 1.99 5.13 4.86 4.15-2.3 3.35-1.02 6.36-.18 9.81 1.64-3.45 4.16-5.53 6.97-7.28-2.15 3.68-6 7.38-4.25 11.98Zm65.98 122.34c2.22-2.07-.8-3.27-1.98-4.86-19.83-18.45-27.22-42.43-25.48-69.07l-2.06-1.03c-3.32 28.24 7.58 56.74 29.52 74.96Zm177.02-153.5c-1.88 3.63 3.56 5.14 3.63 8.58-1.44-1.14-2.66-2.11-4.04-3.21-1.73 6.73 6.22 8.89 8.66 14.19 3.2-9.81 1.46-15.76-8.25-19.56ZM84.38 132.39c-5.25.32-4.49-6.28-6.03-9.97-.95 1.08-1.75 1.98-2.6 2.94 1.08 3.66 2.17 7.34 3.32 11.25.88-.63 1.61-1.15 2.39-1.71 3.67 2.59 7.02.81 8.23-3.24 1.09.27 2.08.74 2.86-.05-1.72-3.55-3.37-6.97-5.06-10.46-1.06.22-2.04-1.27-3.29-.09 1.17 3.27 5.51 9.8.18 11.33ZM301.2 87c-.03.15-.06.3-.08.44-1.65-.09-3.3-.18-5.02-.27 1.84 5.94 8.74 3.07 13.09 5.77-2.5-4.76-4.29-9.42-10.09-10.33.62-2.83-.14-5.5-1.9-6.56.03 2.48-1.01 4.29-3.27 5.23-1.12 4.93 4.01 4.68 7.28 5.72Zm-1.5 34.22-.41.08c-1.19 5.25 2.46 9.85 4.74 14.33 3.96-7.05 3.8-15.05-2.54-20.63-1.94 3.74.76 7.31 1.72 10.85-.13.05-.26.11-.4.16-1.04-1.6-2.08-3.19-3.12-4.79Zm-1.46-29.6c2.26 5.4 5.89 4.1 8.25 7.63-1.99-.65-3.71-1.22-5.44-1.78-.11 5.74 7.11 6.35 11.11 8.55-.64-9.3-5.16-12.81-13.92-14.39Zm-20.82-9.73c2.47 0 6.02 1.58 8.06.15.05-7.83-9.5-6.8-14.93-6.96 1.62 2.93 3.68 5.83 6.87 6.81Zm-27.17 111.68c-2.04-.16-3.96-.31-6.18-.49.09 1.1.15 1.92.22 2.79 1.23.31 2.29.57 3.42.85.34 6.45-3.21 6.56-8.02 3.86-1.43 8.19 11.75 7.36 10.57-7.01Zm-4.57-26.12c-7.28 8.91-7.34 10.21 3.75 14.04-.1-1.01-.17-1.67-.25-2.43-2.16-.65-4.3-1.44-6.23-2.75 1.4-1.73 2.7-3.34 4.05-5.02-.39-1.14-.8-2.32-1.32-3.84Zm-33.91-32.47c1.21-.1 2.29-.18 3.35-.26 1.17-4.35-1.3-4.83-4.28-7.17-1.21 3.61-4.38 5.37-6.19 8.41 2.92-.2 4.6-1.15 6.27-3.42.3.86.57 1.65.84 2.44Zm16.75 19.73c1.05-2.86 6.52-9.91 3.57-12.13-1.36.8-4.21.46-3.95 2.61-.02 3.13 0 6.27 0 9.4.13.04.25.07.38.11Zm54.5-80.19c.11-.16.23-.32.34-.48-3.08-4.39-4.4-5.29-9.84-5.32.09 5.32 5.61 5.33 9.5 5.79Zm-13.89-13.17c-.21 3.75 2.93 5.92 8.15 5.64-1.36-3.79-4.05-5.85-8.15-5.64Zm-12.23 39.06c-4.26-1.98-7.72.54-11.99-.4 1.21 5.93 8.27 1.61 11.99.4Zm8.1-45.05c1.1 3.78 2.58 4.59 6.47 4.04-1.24-3.11-3.24-4.36-6.47-4.04Zm2.09-1.96c-1.51-3.23-2.29-3.64-5.47-3.3 1.31 3.19 3.21 4.38 5.47 3.3Zm-19.45 104.9c1.01 1.73 2.02 3.46 3 5.13 3.92 0 .59-3.27-.31-4.67-.51-.55-1.6-.55-2.43-.8-.08.11-.17.22-.25.33Zm-11.28 4.52c2-1.15 4.07-2.04 5.86-3.48-.42-.6-.73-1.04-1.2-1.7-1.72 1.69-5.76 2.23-4.67 5.18Zm25.99-114.65c.56-2.05-2.36-4.77-4.45-3.94.28 2.26 2.66 4.25 4.45 3.94Zm-44.79 113.78v-.01.03-.01ZM65.96 83.22c1.08-1.01-.55-2.66-1.6-1.63-1.09 1.02.54 2.68 1.6 1.63Zm1.43 2.99c1.08-1.01-.55-2.66-1.6-1.63-1.09 1.02.54 2.68 1.6 1.63Z"/>
  <path d="m59.91 72.72-2.59.2 1.35 3.39 1.82-2.12c.11.06.22.11.34.14 0 .02.26 4.51.27 4.53.46 3.97 6.51 1.53 4.09-1.65l-2.91-3.46c.07-.1.11-.22.15-.34l2.78.29-1.35-3.39-2.01 1.64c-.1-.06-.21-.11-.33-.14l-.23-3.28-3.32 1.32 2.08 2.54c-.06.1-.11.21-.14.32Zm-7.39 17.72c1.68.05 1.71-2.57.03-2.57-1.65-.04-1.7 2.58-.03 2.57Zm-.27 3.36c1.68.05 1.71-2.57.03-2.57-1.65-.04-1.7 2.58-.03 2.57Zm5.36-11.47c1.68.05 1.71-2.57.03-2.57-1.65-.04-1.7 2.58-.03 2.57Zm-4.03 5.06c1.68.05 1.71-2.57.03-2.57-1.65-.04-1.7 2.58-.03 2.57Zm15.61 3.2c-.09-1.29.85-3.82.85-3.82-1.3.52-3.96 1.58-5.27 2.1 0 0 2.42 1.2 3.24 2.2-1.11.4-2.19.58-3.72-.12l2.05 4.08c.44-1.8 1.37-2.87 2.07-3.01 2.22 3.4-3.3 7.16-5.68 4.24-.7-1.22.13-2.53 1.54-1.53-.21-2.52-2.4-2.52-3.06-.64.05-2.59-.6-4.16-3.31-4.92-.7 2.58.16 4.14 2.75 5.25-1.47-.19-3.07 1.26-1.06 3.07.02-1.63 1.38-1.81 2.12-.71 1.17 3.02-2.37 4.18-5.29 1.12.65-.24 1.34-.14 2.26.07l-2.78-3.5c.14 1.24.05 2.12-.2 2.68-.6-.7-.79-1.29-1.04-2.64l-2.12 1.86c2.02 1.27 4.29 3.27 7.07 7.24 3.69-3.62 18.55-9.84 24.29-9.66-.7-4.8-.43-7.81.17-10.12l-2.82.1c.74 1.16 1.01 1.72 1.06 2.64-.57-.24-1.24-.81-1.99-1.81l.39 4.46c.53-.79.96-1.34 1.6-1.61-.01 4.23-3.39 5.82-4.61 2.82-.22-1.31.89-2.11 2.03-.94.21-2.69-1.95-2.65-2.89-1.5 1.12-2.58.68-4.31-1.61-5.7-1.45 2.42-.85 4.01.97 5.85-1.77-.91-3.37.59-1.79 2.57.34-1.71 1.84-1.31 2.17.05.27 3.76-6.32 4.81-7.04.82.6-.38 2.02-.24 3.57.76l-1.31-4.37c-.64 1.57-1.54 2.17-2.62 2.65Zm69.67 138.22c1.99 1.16 4.21 2.43 6.24 3.59-4.97 6.04 3.94 8.65 3.45 2.76 3.33 1.43 16.43 5.45 11.18-2.37-17.18.57-25.94-17.46-16.44-31.24 5.78 2.64 26.08-7.24 24.4 2.81 1.07 1.12 1.37 1.22 3.78 1.2 5.88-13.5-14.35-9.46-21.62-7.88-6.47 1.91-12.43-7.55-18.15-2.37-2.28 2.02-.79 6.49 2.29 6.64 2.74.08 3.52-3.69 1.08-4.86 5.33-1.8 2.77 6.76.84 8.95-6.11-3.16-7.12 6.7-1.08 4.11.27 1.76.35 3.5-.07 5.19-6.61-1.42-4.85 8.05.11 4.24 1.43 1.36 2.09 3.46 2.25 5.48-6.62.95-1.33 9.44 1.74 3.75Z"/>
  <path d="M158.05 239.11c-.28-.1-.56-.18-.93-.3-.46 1.24-1.17 3.51-.07 4.3l5.57 2.38 7.15-5.31 1.93-28.69-2.11.16c-.57.06-4.46 33.14-6.49 31.2.41-2.18 5.16-31.19 5.16-31.19s-1.42-.2-2.11-.3a413 413 0 0 0-.27 1.53l-7.89-10.36-1.04.49 8.45 11.11-.54 1.97c-.78-.5-8.93-11.82-9.74-12.88l-1.66-.12 10.99 14.33-.58 1.92-12.31-16.19-1.58-.02 13.33 17.58-.7 2.53-14.64-19.91-1.94.05 16.2 21.38-.59 1.98-17.88-23.36-.3 1.79s16.64 21.88 17.66 23.31c-.86 2.7-.2 2.93.97 5.16.64 2.49-1.08 6.37-4.04 5.46Z"/>
  <path d="m159.73 230.01-17.11-22.69s-.33 1.07-.47 1.54c1.28 1.67 16.4 21.73 16.4 21.73l1.19-.58Zm-17.16-15.04c3.95 5.01 7.83 10.12 11.68 15.18.57.07 1.64.3 1.64.3l-13.96-18.53s-.24 1.89.64 3.05Zm29.83-8.43c-1.89-.15-3.9-.53-5.75-.71-3.6 3.13.45 4.93 3.14 4.68 2.31.61 5.38-2.44 2.62-3.97Zm-.58 80.94c-.56 2.56 3.47 3.38 3.96.81.56-2.56-3.47-3.38-3.96-.81Zm3.63-15.39c.7-3.17-4.3-4.19-4.91-1-.7 3.17 4.3 4.19 4.91 1Zm-17.08-8.46c.7-3.17-4.3-4.19-4.91-1-.7 3.17 4.3 4.19 4.91 1Zm27.48 31.08c-2.03 11.45-7.49 16.62-12.35 16.62s-10.32-5.17-12.35-16.62c.62.57 1.21 1.32 1.91 2.23l1.06 1.39 1.49-.93c.64-.4 1.26-.72 1.84-.94-.65 1.33-.87 2.89-.57 4.52.64 3.44 3.36 5.85 6.64 5.87 3.25-.02 5.97-2.43 6.61-5.87.31-1.63.08-3.19-.57-4.52.58.23 1.2.55 1.84.94l1.49.93 1.06-1.39c.7-.91 1.29-1.67 1.91-2.23m2.38-3.12c-2.85.29-4.32 2.21-5.83 4.18-1.33-.83-3.09-1.66-4.73-1.66-.88 0-1.73.24-2.46.84 5.22 2.06 3.35 9.93-1.72 9.96-5.07-.03-6.94-7.9-1.72-9.96-.73-.6-1.58-.84-2.46-.84-1.64 0-3.39.83-4.73 1.66-1.5-1.97-2.98-3.9-5.83-4.18 1.56 14.44 8.15 21.66 14.74 21.66s13.18-7.22 14.74-21.66Zm-47.12-37.85c2.17-2.62-5.48-6.05-6.59-7.52-.9-.55-2.04-.41-2.65.37-2.18 2.5 5.34 5.99 6.37 7.38.93.72 2.21.61 2.87-.23Z"/>
  <path d="M140.15 259.32c8.45.04 7.35-13.37-.97-11.95 3.86 2.09 7.21 7.61 1.2 9.22-2.26.46-4.58-1.97-6.24-3.18.06 3.27 2.73 5.91 6.01 5.91Z"/>
  <path d="M128.13 261.55c1.86 3.54 12.73 13.15 15.69 8.61-5.31-2.69-14.31-9.32-10.86-17.73-7.8-4.79-.91-12.44 5.17-5.94 6.48-4.01 13.67-1.14 20.05 3.29 2.29-4.96-8.84-8.38-11.44-9.85-3.27-1.1-13.61 1.24-17.07 1.4-2.35.3-4.04 2.4-3.83 4.76.52 2.52.45 13.45 2.3 15.46Zm95.8-189.33 4.81 1.54c-7.6-16.01-21.52-28.04-38.28-32.35-.41 1.11-.78 2.31-1.12 3.58 14.72 3.7 27.14 13.72 34.6 27.23Zm-99.23 1.53 4.81-1.54c7.46-13.51 19.88-23.53 34.6-27.23-.34-1.27-.71-2.47-1.12-3.58-16.76 4.31-30.68 16.34-38.28 32.35Zm88.23-25.91c3.44.05 3.44-5.35 0-5.3-3.44-.05-3.44 5.35 0 5.3Zm-12.15-6.91c3.44.05 3.44-5.35 0-5.3-3.44-.05-3.44 5.35 0 5.3Zm-6.59-2.4c3.44.05 3.44-5.35 0-5.3-3.44-.05-3.44 5.35 0 5.3Zm12.85 5.51c3.44.05 3.44-5.35 0-5.3-3.44-.05-3.44 5.35 0 5.3Zm11.32 8.21c3.44.05 3.44-5.35 0-5.3-3.44-.05-3.44 5.35 0 5.3Zm13.74 19.91c-.05 3.44 5.35 3.44 5.3 0 .05-3.44-5.35-3.44-5.3 0Zm-3.2-6.23c-.05 3.44 5.35 3.44 5.3 0 .05-3.44-5.35-3.44-5.3 0Zm-5.6-8.71c3.44.05 3.44-5.35 0-5.3-3.44-.05-3.44 5.35 0 5.3Zm1.77 2.81c-.05 3.44 5.35 3.44 5.3 0 .05-3.44-5.35-3.44-5.3 0Zm-84.56-12.19c3.44.05 3.44-5.35 0-5.3-3.44-.05-3.44 5.35 0 5.3Zm-5.44 4.41c3.44.05 3.44-5.35 0-5.3-3.44-.05-3.44 5.35 0 5.3Zm-16.39 22.56c3.44.05 3.44-5.35 0-5.3-3.44-.05-3.44 5.35 0 5.3Zm27.71-30.77c3.44.05 3.44-5.35 0-5.3-3.44-.05-3.44 5.35 0 5.3Zm-20.67 18.64c3.44.05 3.44-5.35 0-5.3-3.44-.05-3.44 5.35 0 5.3Zm-3.83 5.9c3.44.05 3.44-5.35 0-5.3-3.44-.05-3.44 5.35 0 5.3Zm37.35-30.05c3.44.05 3.44-5.35 0-5.3-3.44-.05-3.44 5.35 0 5.3Zm-29.11 18.69c3.44.05 3.44-5.35 0-5.3-3.44-.05-3.44 5.35 0 5.3Zm22.53-16.29c3.44.05 3.44-5.35 0-5.3-3.44-.05-3.44 5.35 0 5.3Zm28.62 24.6h3.53c0-11.17 1.62-20.85 4.54-27.24.98-2.06-2.28-3.57-3.21-1.47-4.21 9.23-4.85 21.92-4.86 28.71Zm-12.65 0h3.53c0-6.79-.64-19.48-4.86-28.71-.93-2.1-4.19-.6-3.21 1.47 2.92 6.39 4.53 16.07 4.54 27.24Zm8.09-.05c3.72.05 3.72-5.79 0-5.74-3.72-.05-3.72 5.79 0 5.74Zm0-7.19c3.72.05 3.72-5.79 0-5.74-3.72-.05-3.72 5.79 0 5.74Zm0-7.19c3.72.05 3.72-5.79 0-5.74-3.72-.05-3.72 5.79 0 5.74Zm-2.03-7.01c1.21-.64 2.85-.64 4.06 0 4.11-6.34-8.17-6.33-4.06 0Z"/>
  <path d="M179 38.05c3.2-5.95-7.76-5.94-4.56 0 1.33-.82 3.23-.82 4.56 0Z"/>
  <path d="M174.98 13.89c-.47 3.67-2.39 6.51-4.78 6.95v.93h4.66c-.22.17-.41.36-.58.58-8.3 1.85-9.15 14.52-1.22 17.5-3.1-2.99-.72-8.74 3.65-8.59 4.37-.15 6.75 5.6 3.65 8.59 7.94-2.98 7.08-15.65-1.22-17.5-.17-.22-.36-.41-.58-.58h4.66v-.93c-2.39-.44-4.31-3.28-4.78-6.95 3.67.47 6.51 2.39 6.95 4.78h.93V5.65h-.93c-.44 2.39-3.28 4.31-6.95 4.78.47-3.67 2.39-6.51 4.78-6.95v-.93h-13.01v.93c2.39.44 4.31 3.28 4.78 6.95-3.67-.47-6.51-2.39-6.95-4.78h-.93v13.01h.93c.44-2.39 3.28-4.31 6.95-4.78Zm114.9 203.68h.02c-.3-.5-.58-1-.83-1.48.07.6.35 1.14.82 1.48Zm-2.2 5.51c-3.68-2.31-5.72 7.88-7.09 9.63-.66 1.5-.07 3.1 1.28 3.58l-2.71 5.63c-1.46-.24-2.73.87-2.73 2.56.55 2.19-1.63 11.73 2.24 11.84v2.64c-9.35 1.68-7.96 16.4 1.66 16.17 9.55.24 11.03-14.35 1.77-16.14v-2.55c1.46.24 2.73-.87 2.73-2.56-.51-2.13 1.48-11.31-1.94-11.79l2.06-4.29c3.51 1.9 5.56-8.03 6.89-9.72.62-1.39.14-2.97-1.08-3.48l1.56-3.25c-.44-.57-1.34-1.92-2.2-3.35l-2.45 5.09Zm-1.73 43.87c-2.27 13.11-19.12.13-7.06-5.41.56 1.26 2.47 1.32 3.03.03 2.32.68 4.03 2.83 4.03 5.38Zm-3.84-13.42c.24-1.88-2.19-2.91-3.17-1.31.26-.71-.68-7.85.66-7.84.56.4 1.29.48 1.88.05.4.07.73.47.73.96v7.7c.01.17-.03.31-.1.45Zm7.1-25.97c-.4.45-3.01 7.9-3.88 7.61-.36-.6-1.17-.98-1.86-.78-.4-.2-.55-.75-.34-1.23.5-.5 2.92-8.12 4.07-7.59.3.71 1.18 1.17 1.92.97.2.26.25.66.09 1.02Zm-188.87-20.98.82 3.18 14.61-1.81-.71-2.88c-.74-.15-9.85 1.52-9.85 1.52s8.65-10.09 8.43-11.29l-14.74 1.66.31 2.54c.71-.1 8.67-1.2 8.67-1.2s-7.21 8.13-7.55 8.28Zm5.2 18.74c7.06 6.76 18.17-4.07 10.86-11.02-7.06-6.83-18.35 4.06-10.86 11.02Zm.83-7.55c3.09-5.62 13.41-2.27 9.14 4.13-3.21 5.44-13.34 2.37-9.14-4.13Zm8.99 23.5 2.47 3.41c2.62-3.22 8.01-7.12 11.89-8.6l-2.47-3.41c-.95 1.56-3.06 3.09-4.7 4.24l-3.79-5.23c1.6-1.2 3.71-2.72 5.49-3.14l-2.47-3.41c-2.62 3.22-8.01 7.12-11.89 8.6l2.47 3.41c.95-1.56 3.04-3.08 4.67-4.22l3.79 5.23c-1.59 1.2-3.69 2.7-5.47 3.12Zm-1.4-50.95.2-3.12c-4.17.78-10.9.78-15.06-.04l-.2 3.12c4.17-.78 10.9-.78 15.06.04Zm106.03 63.1c8.93-3.91 6.94-12.79-3.15-8.73-4.23-1.2 1.11-5.5 3.92-4.55l.07-.06-2.12-2.51c-3.18 1.38-8.24 5.66-5.54 9.28 1.87 2.38 5.64-.16 8.1-.13 4.09.74-.31 4.99-2.84 4.75l-.04.06m26.09-29.14 2.54-8.61c-1.28.09-12.89-3.28-13.92-4.05l-2.41 8.17 2.42 2.06.05-.03c-.18-1.88.07-4 .76-6.34l4.4 1.28c-.44 1.28-1.21 4.19-1.82 4.96l2.2.33 1.4-4.76 4.21 1.23c-.5 1.58-1.2 2.82-2.09 3.71l2.25 2.07Zm-5.86 11.46 1.37-2.67-11.45-7.67-1.26 2.39c.43.56 7.9 4.97 7.9 4.97s-12.31 1.61-12.89 2.56l11.45 7.85 1.33-1.92-6.87-4.46s10.08-1.15 10.42-1.05ZM207 261.91l7.97-4.6c-1.01-.78-7.22-10.92-7.44-12.16l-7.56 4.37.34 3.1h.05c1.2-1.49 2.88-2.86 5.05-4.11l2.35 3.84c-1.23.64-3.86 2.25-4.85 2.41l1.4 1.69 4.41-2.55 2.25 3.68c-1.49.82-2.88 1.26-4.17 1.32l.21 3Zm-88.86-100.67c-2.38-1.88-5.44 1.48-7.84 2.03-4.15.24-.87-4.93 1.64-5.28l.03-.06-2-1.47c-3.76 1.91-6.6 10.04-.54 10.21 1.28.06 4.57-2.21 5.65-2.47 2.85-.53 1.95 3.29.24 4.2.85-.03 1.73-.15 2.54.06 1.58-2.23 2.6-5.47.29-7.22Zm2.95-4.37c-6.65-.43-8.03-11.92 0-10.18v-2.78c-10.41-.62-10.26 15.9 0 15.55v-2.59Zm16.5-20.33h4.59c-1.73-2.75-3.13-5-3.13-5 1.59-.93 4.98-2.29 6.49-2.19l-3.61-2.75-11.09 6.63 1.27 4.26.06.02c.9-1.76 2.25-3.18 3.73-4.01.33.61.94 1.71 1.69 3.04Zm32.38-1.93.02.06c-2.21 1.79-5.02 1.05-7.4-.22-6.9 3.87-14.35-5.2-8.81-11.03 5.83-6.95 17.39.93 11.8 8.6 1.82 1.39 3.28 2.25 4.38 2.58Zm-8.46-2.22c5.55-2.16.74-10.75-4.18-8.72-5.49 2.1-.76 10.76 4.18 8.72Zm10.54-3.93c-.05-2.38.29-6.57-.73-8.62h4.93c-.79 2.22-2.22 12.39 1.99 11.87 1.66.03 3.31-1.12 3.27-2.86-.07-2.43.32-6.91-.73-9.01h4.93c-1.15 3.82-1.15 10.53 0 14.36h-4.18c.09-.29.14-.77.14-1.42-4.27 3.03-10.01 1.52-9.62-4.31Zm20.88 7.09c.87-3.53 2.11-9.56 4.07-12.55l-3.83-1.28c.04 3.8-1.99 9.72-3.27 13.34q1.47.19 3.03.49Zm23.35 47.85h2.45v-38.86h-35.92v38.86h33.46Zm-13.7-1.15h-.02.02Zm-3.62 0h-.02.02Zm18.55-19.96Zm-14.99-16.59Zm-18.48 19.99v-.01.38c.07-.73 1.24-.2.65.3l.19.17c1.18.14 1.36-1.64.15-1.7v-.04l1.43-.62v-.43l-1.43-.63v-.04c1.2-.07 1.03-1.84-.15-1.71l-.19.18c.59.5-.59 1.03-.65.3 0 .05-.01.4.01.44h-.01v-15.44h1.22v-1.15h13.31c.74.13.11 1.14-.36.61l-.19.18c-.15 1.16 1.84 1.25 1.82.08l.7 1.42h.46l.68-1.41c-.01 1.17 1.96 1.08 1.83-.08l-.19-.18c-.47.53-1.1-.48-.36-.61h13.33v1.15h1.23c-.14-.27.49 18.95-.64 14.7l-.19-.18c-1.18-.14-1.35 1.64-.15 1.71v.04l-1.44.63v.43l1.44.62v.04c-1.2.06-1.03 1.84.15 1.7l.19-.17c1.12-4.37.51 15.28.64 14.73h-1.23v1.15h-13.3c-.76-.11-.16-1.16.34-.62l.19-.18c.14-1.13-1.78-1.26-1.82-.12h-.03l-.67-1.37h-.46l-.67 1.37h-.03c-.05-1.13-1.94-1.02-1.82.12l.19.18c.5-.54 1.11.51.34.62h-13.29v-1.15h-1.22v-15.4Z"/>
  <path d="M224.03 184.89c.02-.8-.88-1.4-1.65-1.13v.18c-1.42 6.41-.73-19.97-.86-19l1.3.54v-3.07l-1.3.53V143.5c.19-.98 1.71-.14.87.49v.18c1.79.57 2.31-2.3.4-2.33l1.2-2.07-.28-.27s-2.14 1.18-2.16 1.16c-.03-1.78-3.04-1.34-2.47.38h.18c.64-.77 1.57.61.53.81h-17.93l.56-1.21h-3.26l.56 1.21H181.8c-1.08-.15-.17-1.61.49-.82h.18c.59-1.72-2.44-2.16-2.46-.38-.02.02-2.15-1.16-2.17-1.16l-.29.27 1.2 2.07c-1.92.03-1.39 2.9.4 2.33v-.18c1.4-6.4.73 19.85.86 18.94l-1.27-.52v3.07l1.27-.52c-.12-.46.55 25.23-.86 18.98v-.18c-1.79-.56-2.32 2.3-.4 2.33l-1.2 2.07.29.27s2.14-1.18 2.17-1.16c.02 1.78 3.05 1.34 2.46-.38h-.18c-.28.42-1.02.2-1-.3 0-.26.22-.47.48-.51h17.96l-.57 1.23h3.26l-.56-1.23h17.91c.27.04.48.25.48.51.02.5-.72.72-1 .3h-.19c-.57 1.73 2.45 2.16 2.47.38.02-.02 2.14 1.16 2.15 1.16l.3-.27-1.2-2.07c.69 0 1.25-.53 1.25-1.19Zm-21.71-41.85h17.96v41.86h-39.01v-41.85h21.05Zm15.15 23.02v.03-.03Zm0-4.24v.03-.03Z"/>
  <path d="M184.09 166.09v-.03s-.02.01 0 .03Zm0-4.24v-.03s-.01.01 0 .03ZM54.41 92.48l.86-.72c.34-3.59 2.03-6.78 4.77-8.75a11 11 0 0 0-.56-.71c-3.11 2.26-4.93 6.02-5.07 10.17Zm8.42-5.05.83-.28c-.55-1.53-1.74-4.35-3.48-6.1-.39-.4-1.04.19-.64.58 1.21 1.21 2.38 3.27 3.29 5.79Zm-7.52-2.83c1.68.05 1.71-2.57.03-2.57-1.65-.04-1.7 2.58-.03 2.57Zm24.48-5.54c-1.14 1.23-3.03-.58-1.86-1.78 1.13-1.21 3.03.59 1.86 1.78Zm2.59 2.16c-1.14 1.23-3.03-.58-1.86-1.78 1.13-1.21 3.03.59 1.86 1.78Zm-11.95-4.21c-1.14 1.23-3.03-.58-1.86-1.78 1.13-1.21 3.03.59 1.86 1.78Zm6.44.67c-1.14 1.23-3.03-.58-1.86-1.78 1.13-1.21 3.03.59 1.86 1.78Zm3.05 4.16-1.12.12c-2.8-2.27-6.26-3.3-9.58-2.72-.05-.31-.09-.61-.12-.9 3.79-.64 7.75.69 10.81 3.5Zm-9.72 2.47-.78.4c-.7-1.47-1.88-4.28-1.91-6.76-.01-.56.86-.61.86-.05.02 1.71.67 3.99 1.83 6.4Zm3.46-7.34c-1.14 1.23-3.03-.58-1.86-1.78 1.13-1.21 3.03.59 1.86 1.78Zm138.29 138.08c3.72-.07 12.37-4.16 6.09-7.55-3.52-.59-7.01 1.12-10.4 1.92-13.62 5.41-5.64-1.21-14.09-.48 2.85 7.22 10.06 3.49 15.46 1.81.17.79-.83.98-.7 1.78 1.82-.38 3.55-.74 5.26-1.09.74-3.54 7.21-3.58 4.25-.03-7.45 3.25-16.25 2.65-24.05 4.86-5.22 13.66-14.29 4.37-14.2 8.28-2.04.19-2.01 2.15.08 1.99.05 3.98 10.1-.63 11.96-1.85.45-.96.86-1.84 1.29-2.75 3.06 1.49 5.21-2.91 7.86-3.69 2.64-.53 6.08-3.11 8.33-.72 2.5 2.77 6.25-1.46 8.46 1.34-.83 2.16.26 1.21.63 2.56-.04 1.21 1.98 1.2 2.02-.03 0-.53.05-.87.58-1.08 1.12-1.7-1.26-3.58-2.09-4.99-1.83-1.77-4.88 1.6-6.73-.27Z"/>
  <path d="M178.28 209.04c.61.2.38.92.66 1.29 3.21.22 6.42-.64 9.66-1.03 2.42 0 2.33-2.13 4.1-2.43 4.27.22 6.94-3.55 10.96-4.16 3.23-.91 7.58-2.11 10.43.16.69.77 1.69.91 2.72.72 1.36-.24 2.99-.53 3.7 1.05-.23.24-.46.48-.78.81.14.29.3.64.46.98.67-.04.77.49 1.03.93.36.6 1.21.61 1.35 0 .17-.76.95-.38 1.19-1.04.13-1.97-.3-4.42-2.27-5.41-.97-.91-4.81.95-4.91-.94 2.85.64 8.34-3.08 4.57-5.48-6.38-1.49-13.38 1.59-19.85 2.32-2.54.57-1.27-3.58-6.89-2.46 3.62 7.55 11.43 2.21 17.49 2.14.04.68-1.15.64-.86 1.48 1.76-.55 4.76.39 5.77-1.37.55-2.15 5.07-1.64 3.74.84-3.39 2.17-8.44 1.17-12.42 1.62-4.87.41-10.19.52-14.75 2.22-.9 2.83-2.16 5.74-5.41 6.41-2.28-2.22-5.59.4-8.04-1.84-.8.16-.95.64-1.27 1.25-1.2.45-1.61 1.14-.37 1.95Zm35.9 19.85c-6.38-.82-5.41 3.57-8.55 2.53.57-.7 2.13-1.09 1.62-2.14-4.67 2.04-9.58 3.5-14.24 5.6-2.37 2.51-1.59 7.53-6.93 7.98-.19 2.61-3.85 4.37-6.11 3.2-.91.85-.52 1.07-.38 1.86-.77.7-1.83 2.31-.16 2.29.52-.11.93-.89 1.47-.64-.04.34-.08.67-.12 1.06.44 0 1.03.15 1.19-.05.73-.92 1.78-.16 2.61-.89 2.75-1.84 6.66-3.54 6.45-7.37 4.85-2.13 7.65-9.97 13.97-7.21 3.12 1.68 3.97-3.37 6.77-3.48.8 1.85 1.17 1.7 2.18 1.09 1.76 1.35 1.46-.78 2.14-1.77.08-.97-.9-2.1-1.89-2.08Z"/>
  <path d="M185.35 198.2c-1.01 2.89.03 6.74 2.72 8.35 3.08-1.38 5.06-5.41 3.98-8.79.73-.62 1.64-.92 1.37-1.96-.49-1.17-2.31-.3-2.78-1.66-1.16-1.59-2.69-.29-3.63.77-.71.08-1.4-.27-2.06.06-.67 1.23 1.19 1.97.41 3.23Zm-.79 40.59c3 7.18 7.51-1.95 6.38-5.84 2.07-1.71 1.49-2.71-1-2.88-.88-1.89-2.78-2.08-4.1-.49-.46.58-1.15.37-1.76.43-1.28.6-.57 2 .55 2.31-.61 2.17-.93 4.34-.08 6.47Zm8.24-26.64c-.58-.34-1.31-.35-1.96-.3-1.06-2.79-2.99-1.73-4.55-.07-2.32-.92-1.97 1.16-.75 2.3-1.16 2.84-.36 7.05 2.66 8.26 3.18-1.33 4.06-5.19 3.87-8.3.99-.15 1.79-1.27.73-1.88Zm22.83 9.39c-5.7-1.91-14.68 10.5-18.47 6.84-.92-2-3.75-1.78-5.53-1.24 2.14 1.54 3.31 4.94 6.56 3.83 3.67-.71 6.55-3.68 9.72-5.04.08 1.06-1 1.52-1.45 2.54 2.18-.69 4.13-1.3 5.74-2.68-.27-6.01 8.32-1.8.07 1.9 1.46.03 2.49.69 3.47-.51 1.89-1.69 1.99-4.13-.12-5.64Zm-12.96 13.9c-1.67.42-3.35.56-4.39 2.28.42.56.81 1.1 1.25 1.68-.8 2.07-2.86 1.72-4.79 1.81.18.65.28 1.01.4 1.45-.82.43-1.14 1.16-.97 2.18.22.07.47.16.73.25.54-.67 1.51-1.35 1.74-.09 3.51-1.14 6.64-3.28 8.31-6.55-1-.77-1.85-1.68-2.28-3Z"/>
  <path d="M198.05 223.08c-.74 0-.91.95-.39 1.39.5.56.99-.05 1.57.11.02.32.03.58.05.83 3.06.18 7.69-2.55 9.32-5.02-.65-1.01-1.26-1.96-1.9-2.95-1.66.54-3.56.5-4.55 1.99.6.64 1.12 1.19 1.7 1.81-1.12.62-2.42 1.67-3.64.67-.5-.45-1.88-.24-1.55.63.05.13-.03.31-.05.47-.21.03-.38.05-.55.06Zm-13.02 18.65c-1.13-2.21-2.92-4.24-3.75-6.56 1.02-1.42.56-3.23-1.33-2.08-.48-.96-1.18-1.14-2.06-.9-.25.61-.39 1.2.28 1.67.04.03 0 .18-.02.28-.21.07-.42.14-.61.21-.47 1.22.73 1.92 1.17 2.87 1.32 2.09 3.27 7.14 6.32 4.5Zm0-36.47c-.17-3.06-3.71-5.03-2.64-8.1.28-.57.18-1.25-.4-1.71q-1.03.27-1.81-.22c-1.33-.66-1.52.81-1.4 1.75-.26.12-.51.23-.87.4.92 2.63 3.67 9.22 7.11 7.89Zm-6.83 10.39c1.3 1.99 1.66 5.14 3.87 6.29 1.01 0 2.57.92 3.16-.28-.65-2.37-3.57-3.73-3.15-6.43.14-.63-.09-1.25-.62-1.81-1.13.34-3.5-2.23-2.63.82-.7.24-1.12.73-.64 1.4Zm-50.61-61.24c.49.03.98-.54 1.48-.03-.05.26-.09.51-.14.79 3.11 1.35 6.53-.18 9.61-1.01 1.22-.38 1.92-1.61 3.26-1.58 3.19.23 5.01-2.44 7.74-3.21 3.38-.64 6.82-1.18 10.27-1.12 3.97 5.41 4.68.82 8.24 2.65-.1.53-.2 1.04-.31 1.6.36.12.65.22.93.32-.35 1.35 1.65 2.13 1.92.42.04-.2-.06-.47.24-.5 2.12-1.15-1.13-6.75-3.38-5.28-1.15.54-2.65 1.07-3.55-.29 1.97-.8 4.41-.6 5.75-2.45 1-1.22.92-3.67-1-4.32-4.97-1.38-10.23 1.14-15.26 1.57-9.43 2.56-2.7-2.02-10.18-1.98 2.68 7.67 10.73 2.74 16.31 2.18-.4.9-1.32 1.24-1.69 2.05 1.97-.38 4.58.37 6.05-1.16.76-2.11 5.76-2.35 4.58.51-4.71 4.6-19.47.29-26.04 3.24-.98 3-2.72 4.99-5.59 5.8-2.35-1.45-3.41.2-5.76-.44-.65-.72-1.32-1.53-2.33-.74 0 .31.01.66.02 1.08-1.11-.32-2.36 1.22-1.17 1.92Z"/>
  <path d="M135.76 142.71c-1.74 3.19-1.23 6.07.84 8.74 3.87.14 5.45-5.15 4.82-8.35.4-.28.78-.54 1.18-.82-.11-.42-.21-.77-.31-1.16-.7-.03-1.34-.06-1.95-.08-1.4-1.8-2.25-1.84-3.92-.22q-1.14-.43-1.91.58c.28.58.65 1.02 1.24 1.3Zm18.9 6.86c-.17.89.64 1.28.79 1.97-1.04.67-2.16.71-3.26.86-.58-.58-.82-1.63-1.83-1.32-.58.14-.25.75-.68.99q-1.12-.1-1.29 1.04c.34.2.7.42 1.04.62-.85 4 10.07-.16 11.68-1.35-.53-.89-1.21-1.51-1.42-2.55-.45-1.75-3.69-.32-5.03-.26Zm-20.41.49c-.12-1.4-.47-3.04-1.57-4.01-1.24-1.28-1.64-3.03-.38-4.4-.63-.6-1.47-.11-2.09-.96-.79-.91-1.27.14-1.45 1.09-2.23.32-.94 1.05-.44 2.23.74 2.05 3.36 6.96 5.94 6.05Zm32.94 14.93c-1.15.54-2.67 1.08-3.58-.3 1.99-.81 4.45-.61 5.8-2.47 1.01-1.23.92-3.7-1.01-4.36-5.01-1.39-10.31 1.15-15.39 1.59-9.51 2.58-2.72-2.04-10.27-2 2.7 7.73 10.81 2.76 16.45 2.2-.4.91-1.33 1.25-1.7 2.07 1.99-.38 4.61.37 6.1-1.17.77-2.13 5.8-2.37 4.62.51-4.75 4.64-19.63.29-26.25 3.27-.99 3.02-2.74 5.03-5.64 5.85-2.01-1.24-3.09-.24-4.81-.3.07.56.24 1.11.38 1.66.14.56.21 1.13.24 1.71 2-.22 4.02-.99 5.91-1.5 1.23-.38 1.94-1.62 3.29-1.6 3.21.23 5.05-2.46 7.8-3.24 3.41-.65 6.87-1.19 10.36-1.13 4 5.46 4.72.82 8.31 2.67-.1.53-.2 1.05-.31 1.61.36.12.65.22.94.32-.35 1.36 1.66 2.15 1.94.43.04-.2-.06-.47.24-.51 2.13-1.16-1.14-6.8-3.4-5.32Z"/>
  <path d="M135.24 160.22c-1.75 3.22-1.24 6.12.85 8.81 3.9.14 5.49-5.19 4.86-8.42.41-.28.79-.55 1.19-.83-.11-.42-.21-.77-.32-1.17-.71-.03-1.35-.06-1.96-.08-1.42-1.82-2.27-1.85-3.95-.22q-1.15-.43-1.92.58c.28.59.65 1.02 1.25 1.31Zm19.05 6.91c-.18.9.65 1.29.8 1.99-1.05.68-2.18.72-3.29.86-.59-.59-.82-1.64-1.85-1.34-.58.14-.26.75-.69 1q-1.13-.1-1.3 1.05c.35.21.71.42 1.05.63-.85 4.03 10.15-.16 11.78-1.36-.53-.9-1.22-1.53-1.43-2.57-.46-1.77-3.72-.32-5.07-.26Zm-20.57.5c-.12-1.41-.47-3.06-1.58-4.05-1.25-1.29-1.65-3.06-.38-4.43-.64-.61-1.48-.11-2.11-.97-.8-.91-1.28.14-1.47 1.1-2.24.33-.95 1.06-.45 2.25.74 2.07 3.39 7.02 5.98 6.09Zm33.86 13.8c-1.15.54-2.67 1.08-3.57-.3 1.98-.81 4.44-.61 5.79-2.47 1.01-1.23.92-3.69-1.01-4.35-5-1.39-10.3 1.15-15.37 1.58-9.5 2.57-2.72-2.04-10.25-2 2.7 7.72 10.8 2.76 16.42 2.19-.4.91-1.33 1.25-1.7 2.07 1.99-.38 4.61.37 6.09-1.17.77-2.12 5.8-2.37 4.61.51-4.74 4.63-19.61.29-26.21 3.27-.99 3.02-2.74 5.02-5.63 5.84-2.37-1.46-3.43.2-5.79-.45-.23-.25-.46-.52-.71-.72a.37.37 0 0 1-.17-.13 1.05 1.05 0 0 0-.28-.14c.01.03.02.07.03.11.04 1.38-.29 2.73-.83 4 3.08 1.21 6.44-.27 9.48-1.09 1.23-.38 1.93-1.62 3.29-1.59 3.21.23 5.04-2.46 7.79-3.24 3.41-.65 6.86-1.19 10.34-1.13 3.99 5.45 4.71.82 8.3 2.67-.1.53-.2 1.05-.31 1.61.36.12.65.22.93.32-.35 1.36 1.66 2.14 1.93.42.04-.2-.06-.47.24-.51 2.13-1.16-1.14-6.79-3.4-5.32Z"/>
  <path d="M135.67 176.67c-1.75 3.22-1.24 6.11.84 8.8 3.9.14 5.49-5.18 4.85-8.4.41-.28.79-.54 1.19-.82-.11-.42-.21-.77-.31-1.17-.71-.03-1.35-.06-1.96-.08-1.41-1.81-2.26-1.85-3.94-.22q-1.15-.43-1.92.58c.28.59.65 1.02 1.25 1.31Zm19.02 6.9c-.18.9.65 1.29.8 1.99-1.04.68-2.17.71-3.28.86-.59-.59-.82-1.64-1.84-1.33-.58.14-.26.75-.69 1q-1.13-.1-1.3 1.05c.34.21.71.42 1.05.63-.85 4.03 10.13-.16 11.76-1.36-.53-.9-1.22-1.52-1.43-2.57-.45-1.76-3.72-.32-5.06-.26Zm-22.12-3.55c-.24-.24-.44-.5-.61-.77-.07.72.31 1.56.18 2.27-.1.55-.26 1.38-.42 1.92.9.88 1.44.98 2.43.62-.12-1.41-.47-3.06-1.58-4.04Zm57.02-28.33c.86.54 1.5 3.05 2.01 3.4.97 1.28 3.01 4.71 5.01 4.01v-.05c.59-.24 1.16-1.96 1.19-2.21-.02-.07-.35-.38-.73-.67-1.88-1.63-3.01-3.24-3.05-4.74-.08-.49 1.07-1.14.98-1.6-.04-1.71-1.46.21-2.02-.07-.31-.49-1.36-1.89-2.01-1.21-.4.19.1 1.2-.22 1.44-.15.19-.24.23-.69.22-1.51-.03-1.71.92-.48 1.49Z"/>
  <path d="M197.62 163.21c.5-.5 2.02-1.97 2.18-2.3.15-.34.2-.35 1.27-.44 2.93-.42 4.41-1.61 5.24-4.76.4-.94-.11-2.99-.71-3.43-.23-.16-.33-.47-.19-.57.54-.08 1.68-.52 1.88-1.16-.31-.61-1.07-.15-2.1-.48-.76-.35-2.78-.98-3.59-.52-.58.7-4 .78-3.38 1.79.13.38.38 1.24.38 1.24l1.56.18.02 1.13-1.49.32c-.92 1.36 2.22 1.47 3.04.41.56-.66 1.44-.76 1.41-.03-.42.9-1.93 1.36-2.81 1.79-1.31.22-1.66 2.8-2.68 3.66-2.87.53-3.89.46-6.72-1.84-1.03-1.19-1.85-.3-1.07.64-.51.17-3.14-1.32-1.95 1.21l.19.23c-1.3 1.87.63 1.23 1.72 1.81 2.31.92 4.84 1.62 7.82 1.11Z"/>
  <path d="m206.79 161.41 1.22 2.51s2.61 1.17 2.96 1.51c1.47 1.07 1.22 4.04-.1 3.7-2.17-.89-3.46-3.95-4.96-5.84-.4-.31-1.43-3.4-2.12-2.62-8.93 2 1.62 4.29 0 7.61-.31.47-1.31 2.79-.9 3.14.75.92 2.43 1.59 3.32 2.76 1.46 1.42.15 3.06-1.65 1.74-1.02-.77-2.24.34-1.19 1.37.07.2-.62.49-.75.57-1.06 1.46.7 1.39 1.63.65.52-.25 0 1.28.86 1.03 1.63-.36 4.15-1.18 4.6-3.73 1.01-2.34-1.33-1.96-1.91-4.01-.59-.84-.63-3.92.64-2.79 1.18 1.49 2.77 2.34 4.22 1.02 1.34-1.26.12-4.32-.57-5.67-1.29-2.69-2.78-5.29-2.68-8.51 1.81-2.15 3.91 1.68 5.19-4.29-4.23.29-8.39 3.13-6.3 7.87 1.28 2.68 1.01 2.48-1.51 1.97Z"/>
  <path d="M199.99 166.48c-2.24-.11-3.94-.29-3.32 2.37.12.64.36 2.58.74 3.02.16.25.13.52-.07.69-.9.51-4.32-.88-3.91-2.04 0-.97-.97-1.19-1.25-.5-.15.31-.4.29-.74-.08-.63-.9-1.51.32-1.15 1 .14.27-.03.57-.35.62-.94.38-.89 1.67.42 1.72 2.85 1.32 5.33 2.68 8.64 2.21l-.05.02c3.61-.29 1.75-.97 1.59-3.48-.62-2.7 4-4.48-.55-5.53Zm3.4 38.63c-.23-.22-.82.03-.9.17.02 1.23-1.27.87-1.66 1.71.25.51.62.91 1.17.86.69-.06.64.79 1.27.84 2.98-1.36 6.51-1.03 9.04-3.35-.95-.81-1.18-1.91-1.38-3.07-1.72.13-3.39-.12-4.87.7-.15.79.39 1.2.78 1.88-1.22.52-2.3.78-3.45.26Z"/>
  <path d="M251.02 171.65c-1.17-2.51-3.89-16.59-7.84-13.54 17.98 33.58 5.99 77.73-25.22 98.99-9.16 5.53-20.52 14.71-31.35 8.59 6.99-27.24 40.5-15.74 47.79-67.67-.9-.44-1.24-.72-2.06-.86-1.05 7.26-2.87 14.23-5.59 20.93 2.91-7.73 1.06-31.93 1.61-33.26-.3-.4-.62-.55-1.61-1.77.18 2.92-.02 3.99.02 7.85h-50.85v-53.04h49.91v29.92c-.02.16.19 1.59.3 2.11.71-1.09.77-1.05 1.25-1.41v-32.17H122.71l-.09 27.11h1.55v-25.56h50.22v53.04h-48.43c-.14.15.03-.83-.13-.69 0-.14-.33.83-.33.69h-1.35c-.03-2.47.03-3.99.03-4.07l-1.55-.06c-1.13 3.98 2.19 37.26 7.65 43.1-10.93-10.6-14.37-29.41-12.33-43.58 0 0-1.02-.78-2.14-1.81-3.43 19.96 4.12 39.65 18.1 53.93 1.22 1.3 2.56-.1 4.05-.47-.3-.32-.96-.83-1.41-1.46.55.57 1.04 1.08 1.41 1.46l-.78-2.15c-10.98-8.39-12.79-32.37-13.02-43.36h50.22s-.03 66.51-.07 66.66c-10.68-.52-17.91-12.11-28.21-12.25 14.81 8.78 41.91 29.95 59.02 20.68.13.16.11.13.24.3-1.8 2.25-8.14 6.51-10.97 5.43-4.66-2.81-11.84 2.3-8.54 7.51.42.61.68 1.15.19 1.96-18.51-1.74-35.14-12.79-50.74-22.26-.15.17-.12.13-.28.3 5.97 8.07 27.33 18.1 27.33 18.1v12s1.36.91 2.25 1.51V279.4c5.6 1.92 16.95 5.48 16.95 5.48l.03 8.1 2.16-1.38-.11-6.07 3.03-.84a3.984 3.984 0 0 0 2.9-4.31c-.9-.45-1.53-1.37-1.25-2.64.45-2.36 3.3-2.42 4.47-1 2.32 1.03 4.59-1.75 6.88-2.41 3.22-1.95 7.19-3.68 8.68-7.39.28-.92.79-1.48 1.56-1.94 6.5-3.69 12.79-7.77 18.1-13.09 22.66-19.16 30.58-52.09 23.03-80.27Zm-75.1 20.8h50.84c4.16 38.86-18.62 51.86-50.84 65.4v-65.4Zm.92 69.42c3.6-3.2 6.09-4.32 10.72-5.42-1.28 2.87-2.5 5.61-3.79 8.51-2.32-1.03-4.6-2.05-6.93-3.09ZM63.39 283.23c-1.17-.71-2.61-.93-4.31-.66.36 2.58 1.3 7.35 2.05 9.85 4.79-.68 6.23-6.67 2.26-9.19Z"/>
  <path d="M128.73 265.57c-28.78.04-57.46 12.33-86.25 12.33-3.45 0-6.9-.18-10.36-.57 8.92 7.04 8.3 21.17 21.26 21.17.56 0 1.15-.03 1.76-.08 17.63-1.88 35.16-6.85 52.51-9.61 2.99-.45 17.35-3.97 25.76-3.97 3.03 0 5.29.46 5.96 1.68.91 1.66-4.8 6.48-4.85 6.66-.01.05.02.08.08.08.55 0 3.72-1.83 6.09-3.39 9.39-6.75-10.28-24.3-11.98-24.3Zm-60.59 23.88c-1.57 3.72-6.25 4.57-9.9 5.22.18-1.16-2.06-11.92-2.74-12.9 6.33-2.71 15.39-.09 12.65 7.68Zm3.71 2.27c.19-3.73-1.06-9.6-2.75-12.93l3.68-.78c-.19 3.73 1.06 9.6 2.75 12.93l-3.68.78Zm14.13-3.06-7.54 1.66c.15-1.14-2.28-11.7-2.91-12.67l7.94-1.75-.65 2.66c-1.1-.31-2.39-.32-3.86-.03l.88 3.84 4.39-.97.71 1.87c-.87-.14-3.52.52-4.73.73l.92 4.01c2.16-.48 3.95-1.2 5.36-2.16l.04.02-.57 2.79Zm7.72-1.19c-5.49.13-6.29-7.72-7.58-11.59l2.66-.5c1.27 3.37.92 11.26 6.57 10.22 4.08-1.84.77-8.33.35-11.46l2.63-.37c1 5.2 3.35 14.24-4.64 13.7Zm21.84-3.91-7.52 1.73c.14-1.14-2.38-11.68-3.03-12.64l7.93-1.83-.62 2.67c-1.1-.3-2.39-.3-3.86 0l.92 3.83 4.38-1.01.73 1.86c-.87-.13-3.52.55-4.72.77l.96 4c2.16-.5 3.94-1.23 5.34-2.21l.04.02-.54 2.8Zm7.93-12.83 2.16 10.94-2.51.45-2.22-10.89c-1.55.28-2.42.28-4.52 1.19l-.07-2.45 10.86-1.41.75 2.07c-1-.36-4.46.08-4.46.08Zm138.61 6.99c-.61 2.4-1.55 6.92-1.87 9.38 5.65 1.2 7.41-8.26 1.87-9.38Zm22.14 3.83c-4.32-1.06-5.72 7.93-2.13 9.37 4.41 1.04 5.74-7.89 2.13-9.37Zm-11.29-1.68-1.32 4.77c3.68.68 5.26-4.17 1.32-4.77Zm-34.62-6.83c-4.5-1.24-6.24 8.08-2.46 9.65 4.6 1.22 6.26-8.03 2.46-9.65Z"/>
  <path d="M302.73 277.85c-3.61 0-7.03-.06-8.71-.2-18.98-1.85-37.76-7.27-56.69-10.28-5.46-.86-9.93-1.67-13.8-1.67-8.04 0-13.51 3.49-19.98 17.28-2.76 5.25 6.48 10.25 8.52 10.47-7.59-6.48-4.95-8.41 1.04-8.41 8.28 0 22.96 3.67 25.83 4.03 17.35 2.76 34.88 7.73 52.51 9.61.62.06 1.21.08 1.77.08 12.96 0 12.35-14.14 21.26-21.17-1.59.14-6.84.25-11.76.25Zm-71.38-7.6c-.43.4-1.97 11.16-1.87 12.21l-2.9-.57c.52-.93 1.2-8.44 1.2-8.44l-4.97 7.73-2.92-8.71s-1.18 6.25-1.23 8.27l-2.84-.39c.91-1.47 2.7-12.55 2.7-12.55l2.94.55c.08.59 2.3 8.1 2.3 8.1s3.91-6.56 4.14-6.9l3.46.65v.04Zm10.65 9.52c-2.61 8.84-12.79 4.01-9.76-3.87 2.58-8.57 12.78-4.04 9.76 3.87Zm10.04 7.73c-.89-.19-5.7-10-5.7-10s-1.17 7.62-1.47 8.15l-2.19-.31 2.5-11.96 2.43.32c.02.31 3.84 8.39 3.84 8.39s1.28-6.55 1.39-7.13l1.85.52-2.64 12.01Zm11.34 1.05c-1.72.6-4.17-.08-5.96-.43l2.4-12.31c7.99-.53 11.3 9.82 3.56 12.74Zm14.18-5.68c-.36 1.4-1.38 2.36-3.08 2.88.74 2.43 1.18 3.23 2.43 5.86l-.02.06-1.94-.3c-.4-.24-2.83-3.64-3.56-5.49-.42 1.52-.86 3.46-.68 4.84l-3.29-.51c.61-.95 3.17-11.02 3.08-12.08 2.85.36 7.96.87 7.06 4.74Zm6.32 9.76c-7.32 1.37-7.31-10.99-1.44-12.72 7.35-1.54 7.38 11.02 1.44 12.72Zm7.63-7.23c-.28 2.19-1.31 6.64-.91 8.72l-2.86-.41c1.26-3.23 2.12-8.68 1.92-12.13l2.86.41c-.47.96-.8 2.1-1.01 3.41Zm6.76-.53s-1.68 9.48-1.57 10.28l-2.85-.51c-.05.06 1.75-8.31 2.19-10.13-1.01-.21-2.2-.11-3.32.32l-.02-.03 1.14-2.38 7.73 1.39.54 2.63c-.65-.63-2.74-1.36-3.84-1.56Z"/>
</svg>
