<svg width="106" height="48" viewBox="0 0 106 48" fill="none" xmlns="http://www.w3.org/2000/svg">
<path d="M96.1606 37.5613C95.7719 37.332 95.2839 37.2174 94.6965 37.2174C94.4414 37.2175 94.1878 37.2543 93.9434 37.3266C93.6852 37.4018 93.4371 37.5077 93.2047 37.6421C92.9726 37.7741 92.7579 37.934 92.5654 38.1181C92.416 38.2649 92.2851 38.4291 92.1757 38.6071C92.0841 38.3748 91.9567 38.1579 91.798 37.9641C91.5864 37.7109 91.3127 37.5155 91.003 37.3965C90.6673 37.271 90.3107 37.2092 89.9519 37.2141C89.6914 37.2147 89.4326 37.2548 89.1845 37.3331C88.9279 37.4125 88.6821 37.5225 88.4524 37.6606C88.2257 37.7961 88.0222 37.9663 87.8495 38.165C87.8021 38.2196 87.7645 38.2796 87.7225 38.3364L87.6927 37.3539H85.7461V44.7718H87.7634V40.3309C87.7624 40.1423 87.8039 39.9558 87.8849 39.785C87.9637 39.6216 88.0718 39.4737 88.204 39.3484C88.3407 39.2192 88.5026 39.1189 88.6799 39.0536C88.8727 38.9809 89.0774 38.9439 89.2838 38.9445C89.5163 38.9373 89.7461 38.9956 89.9463 39.1126C90.1332 39.2333 90.279 39.4067 90.3648 39.6104C90.4704 39.8613 90.5211 40.1313 90.5139 40.4029V44.7773H92.5312V40.344C92.5275 40.1513 92.5651 39.9601 92.6416 39.7829C92.7166 39.6172 92.8252 39.4686 92.9607 39.3462C93.1006 39.2178 93.2645 39.1177 93.4432 39.0514C93.6361 38.9787 93.8408 38.9417 94.0472 38.9423C94.2899 38.9321 94.5308 38.9876 94.7439 39.1027C94.9292 39.2177 95.0732 39.3872 95.1558 39.5875C95.2597 39.8505 95.3081 40.1317 95.2982 40.4139V44.7751H97.3155V40.2741C97.3312 39.6999 97.2322 39.1282 97.0241 38.5918C96.855 38.163 96.5481 37.8009 96.1507 37.5613" fill="#222222"/>
<path d="M55.5869 39.2153C55.897 39.03 56.2538 38.9354 56.616 38.9424C56.8609 38.9419 57.1039 38.9844 57.3337 39.0679C57.5649 39.1514 57.7828 39.2672 57.9807 39.4118C58.1701 39.5473 58.3376 39.7104 58.4776 39.8954L59.5818 38.5777C59.2464 38.1304 58.7946 37.7815 58.2745 37.5679C57.6914 37.3197 57.062 37.1955 56.4272 37.2033C55.7588 37.1905 55.0997 37.3597 54.5221 37.6924C53.9445 38.0251 53.4706 38.5085 53.1522 39.0897C52.8309 39.6991 52.6631 40.3762 52.6631 41.0635C52.6631 41.7507 52.8309 42.4278 53.1522 43.0372C53.4729 43.6159 53.9476 44.0968 54.5248 44.428C55.1021 44.7591 55.7599 44.9279 56.4272 44.916C57.0501 44.9183 57.6665 44.7904 58.2358 44.5405C58.7553 44.3289 59.2142 43.9941 59.5719 43.5656L58.4776 42.248C58.3226 42.4384 58.1434 42.6083 57.9443 42.7534C57.7566 42.89 57.5483 42.9964 57.3271 43.0689C57.1021 43.1413 56.867 43.1781 56.6304 43.1781C56.2684 43.1829 55.9129 43.0827 55.6079 42.8899C55.3077 42.7019 55.0608 42.4415 54.8902 42.1333C54.7107 41.8039 54.6202 41.4343 54.6274 41.0602C54.6201 40.681 54.7081 40.3059 54.8836 39.9685C55.0448 39.6601 55.2879 39.4008 55.5869 39.2186" fill="#222222"/>
<path d="M103.7 37.3574L102.123 41.7329C102.053 41.9512 101.982 42.1553 101.911 42.3497C101.894 42.2962 101.879 42.2405 101.86 42.1881C101.798 41.9994 101.724 41.8146 101.64 41.6346L99.8078 37.3574H97.52L100.914 44.747L99.5086 48.0002H101.555L102.848 44.7754L106 37.3574H103.7Z" fill="#222222"/>
<path d="M82.8125 40.2884H79.3587C79.3929 40.1337 79.4444 39.9832 79.5121 39.8397C79.6523 39.5426 79.8843 39.2972 80.1746 39.1389C80.501 38.9707 80.8657 38.8884 81.2335 38.8998C81.5009 38.8952 81.7657 38.9528 82.0065 39.0679C82.2308 39.1781 82.4237 39.3421 82.5674 39.545C82.7129 39.7471 82.7989 39.9852 82.8158 40.2327L82.8125 40.2884ZM83.7577 38.248C83.4397 37.916 83.0549 37.6534 82.6281 37.4773C82.1781 37.2916 81.6946 37.1984 81.207 37.2033C80.6839 37.1987 80.1649 37.2963 79.68 37.4904C79.2222 37.6749 78.8085 37.9519 78.4654 38.3037C78.12 38.6616 77.8494 39.0834 77.6693 39.545C77.4758 40.0463 77.3795 40.5793 77.3855 41.1159C77.3717 41.8047 77.5485 42.4842 77.8967 43.0809C78.2369 43.6497 78.7284 44.1153 79.3178 44.4269C80.2957 44.9142 81.4166 45.0426 82.4812 44.7894C82.8351 44.7042 83.1781 44.5797 83.5037 44.4182C83.8334 44.2562 84.1394 44.0509 84.4135 43.808L83.4474 42.4761C83.1836 42.6992 82.8854 42.8791 82.5641 43.0089C82.2731 43.1143 81.9652 43.1664 81.6553 43.1628C81.2198 43.1738 80.7882 43.0797 80.3977 42.8888C80.0544 42.7178 79.7684 42.4524 79.574 42.1246C79.4625 41.9331 79.3838 41.7247 79.341 41.5078H84.6951L84.7095 40.891C84.7336 40.3904 84.6563 39.8901 84.482 39.4194C84.3207 38.9842 84.072 38.5858 83.751 38.248" fill="#222222"/>
<path d="M46.5374 41.0177L47.1049 39.5308C47.1785 39.3125 47.2591 39.0941 47.3467 38.8758C47.4343 38.6575 47.5146 38.426 47.5875 38.1815C47.6625 37.9446 47.7354 37.7132 47.8083 37.485C47.879 37.7033 47.9518 37.9348 48.0291 38.1739C48.1138 38.4359 48.1966 38.6837 48.2776 38.9173C48.3585 39.1509 48.4274 39.3427 48.484 39.4926L49.0637 41.021L46.5374 41.0177ZM46.8918 34.96L42.9985 44.7752H45.102L45.8892 42.7142H49.7052L50.4859 44.7752H52.6743L48.7954 34.96H46.8918Z" fill="#222222"/>
<path d="M65.3445 42.1738C65.2011 42.4818 64.9711 42.7426 64.682 42.9249C64.3835 43.1062 64.0385 43.1987 63.6882 43.1913C63.345 43.1977 63.0074 43.1051 62.7166 42.9249C62.4301 42.7396 62.2008 42.4797 62.0541 42.1738C61.8866 41.8218 61.8042 41.4361 61.8134 41.0472C61.8043 40.6639 61.8868 40.284 62.0541 39.9381C62.2036 39.6341 62.4323 39.3748 62.7166 39.187C63.0066 39.0024 63.3456 38.9074 63.6904 38.9141C64.0416 38.9068 64.3872 39.0017 64.6842 39.187C64.9711 39.3718 65.2005 39.6319 65.3467 39.9381C65.5084 40.2855 65.5877 40.6649 65.5786 41.0472C65.5871 41.4357 65.5071 41.8211 65.3445 42.1749V42.1738ZM65.5499 38.3431C65.4059 38.1436 65.2363 37.9634 65.0453 37.8071C64.8031 37.6163 64.5293 37.4685 64.2359 37.3705C63.9092 37.2595 63.5655 37.2048 63.2201 37.2089C62.6007 37.1991 61.9924 37.3725 61.4733 37.7067C60.9543 38.0464 60.5353 38.5157 60.2587 39.0669C59.9506 39.6819 59.7968 40.3611 59.8104 41.0472C59.7973 41.7357 59.9486 42.4175 60.2521 43.0374C60.5222 43.5904 60.9336 44.0641 61.4457 44.4118C61.9436 44.7473 62.5336 44.9237 63.1361 44.9172C63.4742 44.9187 63.8101 44.8641 64.1299 44.7557C64.4322 44.6531 64.717 44.5059 64.9746 44.319C65.1804 44.1712 65.366 43.9976 65.5267 43.8026V44.7742H67.5583V37.3574H65.5499V38.3431Z" fill="#222222"/>
<path d="M74.1801 42.2098C74.0318 42.5216 73.801 42.7879 73.5121 42.9805C73.2168 43.1705 72.8706 43.2683 72.5184 43.2611C72.1681 43.2691 71.8237 43.1712 71.5312 42.9805C71.2466 42.7871 71.0206 42.5206 70.8776 42.2098C70.7231 41.8469 70.6435 41.4572 70.6435 41.0635C70.6435 40.6698 70.7231 40.2801 70.8776 39.9173C71.0178 39.6044 71.2444 39.3369 71.5312 39.1455C71.8254 38.9591 72.1691 38.8641 72.5184 38.8725C72.8695 38.8649 73.2152 38.9599 73.5121 39.1455C73.8031 39.3363 74.0344 39.6036 74.1801 39.9173C74.3389 40.279 74.4208 40.6692 74.4208 41.0635C74.4208 41.4579 74.3389 41.848 74.1801 42.2098ZM74.3502 38.1433C74.2304 38.0195 74.0995 37.9066 73.9593 37.806C73.4062 37.4149 72.7434 37.2043 72.0634 37.2034C71.4368 37.1934 70.8215 37.369 70.2968 37.7077C69.7732 38.0511 69.3507 38.5253 69.0723 39.0821C68.778 39.7045 68.6255 40.3831 68.6255 41.0701C68.6255 41.7571 68.778 42.4357 69.0723 43.058C69.3516 43.6119 69.776 44.0816 70.3012 44.4183C70.8278 44.7522 71.4423 44.9253 72.0679 44.9161C72.4073 44.9176 72.745 44.8679 73.0693 44.7687C73.3729 44.6769 73.6604 44.5396 73.9218 44.3615C74.1084 44.2335 74.2764 44.0807 74.4208 43.9074L74.4639 44.7752H76.3675V34.4043H74.3502V38.1433Z" fill="#222222"/>
<path d="M99.4973 21.23H97.48V31.6064H99.4973V21.23Z" fill="#222222"/>
<path d="M68.4583 22.3796C68.6792 22.5674 68.9784 22.6602 69.3671 22.6602C69.6946 22.6776 70.0167 22.5723 70.2692 22.3654C70.3795 22.2668 70.4665 22.1453 70.5237 22.0096C70.581 21.8739 70.6072 21.7274 70.6004 21.5805C70.6075 21.4324 70.5815 21.2847 70.5242 21.1477C70.467 21.0107 70.3799 20.8879 70.2692 20.7879C70.0483 20.5972 69.7451 20.5015 69.3593 20.5008C69.0307 20.4836 68.7079 20.5914 68.4572 20.8021C68.2459 21.0115 68.1272 21.2953 68.1274 21.5911C68.1276 21.8869 68.2467 22.1705 68.4583 22.3796Z" fill="#222222"/>
<path d="M73.7582 26.7964C73.9193 26.4885 74.1591 26.2276 74.4538 26.0399C74.755 25.8576 75.1011 25.7606 75.4542 25.7592C75.8074 25.7579 76.1541 25.8523 76.4568 26.0322C76.7526 26.2172 76.9911 26.4794 77.1458 26.7898C77.3161 27.1319 77.4016 27.5091 77.3953 27.8902C77.4014 28.2686 77.3159 28.6429 77.1458 28.9819C76.991 29.2921 76.7526 29.5539 76.4568 29.7385C76.1589 29.922 75.814 30.0172 75.463 30.0125C75.1074 30.0184 74.7575 29.9233 74.4549 29.7385C74.1583 29.5529 73.9179 29.2915 73.7593 28.9819C73.5996 28.6396 73.517 28.2672 73.517 27.8902C73.517 27.5133 73.5996 27.1409 73.7593 26.7986L73.7582 26.7964ZM73.4104 31.2515C74.0417 31.5785 74.7437 31.7493 75.4564 31.7493C76.1691 31.7493 76.8711 31.5785 77.5024 31.2515C78.0911 30.9318 78.5799 30.4587 78.9157 29.8837C79.2638 29.2773 79.4404 28.5895 79.427 27.8924C79.441 27.1977 79.2644 26.5122 78.9157 25.9089C78.5771 25.336 78.0889 24.8635 77.5024 24.541C76.8724 24.2098 76.1699 24.0366 75.4564 24.0366C74.7429 24.0366 74.0403 24.2098 73.4104 24.541C72.8081 24.8709 72.3089 25.3579 71.9671 25.9488C71.6252 26.5397 71.4538 27.2119 71.4715 27.8924C71.458 28.5905 71.6374 29.279 71.9904 29.8837C72.3303 30.4579 72.8209 30.9305 73.4104 31.2515Z" fill="#222222"/>
<path d="M90.6163 26.769C90.7655 26.4647 90.9943 26.2054 91.2788 26.0179C91.5688 25.8333 91.9079 25.7383 92.2527 25.745C92.6038 25.7379 92.9494 25.8328 93.2465 26.0179C93.5335 26.2026 93.7629 26.4627 93.909 26.769C94.0722 27.1157 94.1526 27.4948 94.1442 27.877C94.1529 28.2657 94.0724 28.6512 93.909 29.0048C93.7657 29.3128 93.5357 29.5736 93.2465 29.7558C92.9479 29.937 92.6029 30.0294 92.2527 30.0222C91.9088 30.029 91.5703 29.9365 91.2788 29.7558C90.9921 29.5708 90.7628 29.3108 90.6163 29.0048C90.4484 28.6525 90.3656 28.2664 90.3745 27.877C90.366 27.494 90.4488 27.1144 90.6163 26.769ZM90.0057 31.2449C90.5034 31.581 91.0936 31.7574 91.6962 31.7503C92.0343 31.7519 92.3702 31.6973 92.69 31.5888C92.9926 31.4863 93.2777 31.339 93.5358 31.1521C93.7419 31.0047 93.9275 30.8311 94.0878 30.6357V31.6073H96.1195V24.1883H94.111V25.1708C93.9671 24.9712 93.7974 24.791 93.6064 24.6348C93.3642 24.4441 93.0903 24.2964 92.7971 24.1981C92.4703 24.0872 92.1267 24.0326 91.7812 24.0365C91.1615 24.0268 90.5529 24.2001 90.0334 24.5343C89.5144 24.8741 89.0954 25.3433 88.8188 25.8946C88.5128 26.5115 88.3613 27.1922 88.3771 27.8792C88.364 28.5677 88.5153 29.2495 88.8188 29.8694C89.0889 30.4224 89.5003 30.8961 90.0124 31.2438" fill="#222222"/>
<path d="M66.028 22.3096H64.0107V24.1883H62.604V25.9689H64.0107V31.6063H66.028V25.9689H67.5628V24.1883H66.028V22.3096Z" fill="#222222"/>
<path d="M70.3904 24.1885H68.373V31.6064H70.3904V24.1885Z" fill="#222222"/>
<path d="M87.3713 31.6062V27.0638C87.3878 26.4912 87.2887 25.9212 87.0798 25.3869C86.9108 24.9637 86.6064 24.6068 86.213 24.3706C85.7764 24.1335 85.2832 24.0173 84.7853 24.0344C84.3738 24.0333 83.9668 24.1192 83.5917 24.2865C83.2274 24.445 82.8972 24.6711 82.6189 24.9525C82.5539 25.0191 82.4923 25.0891 82.4346 25.1621L82.3981 24.1883H80.4658V31.6062H82.4809V27.1467C82.4792 26.9582 82.5203 26.7716 82.6013 26.6009C82.6823 26.4321 82.7946 26.2799 82.9325 26.1522C83.0749 26.0181 83.2442 25.915 83.4294 25.8498C83.6322 25.777 83.8464 25.7401 84.0621 25.7407C84.3093 25.7152 84.5587 25.7615 84.7798 25.8738C84.9771 25.9863 85.1298 26.1619 85.2126 26.3716C85.3155 26.6403 85.3639 26.9262 85.3551 27.2133V31.6019L87.3713 31.6062Z" fill="#222222"/>
<path d="M44.1777 21.7911V31.6064H46.2646V25.29L51.0523 31.6064H52.9835V21.7911H50.9021V24.469C50.9021 24.8708 50.9021 25.243 50.9165 25.5836C50.9308 25.9242 50.9374 26.2485 50.9518 26.5519C50.9661 26.8554 50.9849 27.1502 51.0092 27.4351C51.0335 27.72 51.0589 28.0006 51.0865 28.2757C51.0942 28.3478 51.1042 28.4231 51.113 28.494L46.0857 21.79L44.1777 21.7911Z" fill="#222222"/>
<path d="M59.5828 29.0048C59.4394 29.3128 59.2094 29.5735 58.9203 29.7558C58.6218 29.9371 58.2768 30.0295 57.9266 30.0222C57.583 30.0288 57.2449 29.9363 56.9538 29.7558C56.667 29.5708 56.4377 29.3108 56.2913 29.0048C56.1233 28.6521 56.0406 28.2657 56.0495 27.876C56.0411 27.4933 56.1239 27.1141 56.2913 26.769C56.4402 26.4649 56.669 26.2059 56.9538 26.019C57.2429 25.8332 57.5818 25.7378 57.9266 25.745C58.2779 25.7371 58.6238 25.8324 58.9203 26.019C59.2075 26.2031 59.4369 26.4629 59.5828 26.769C59.745 27.1156 59.825 27.4942 59.8169 27.876C59.8255 28.2648 59.7455 28.6506 59.5828 29.0048ZM61.7911 31.6062V24.1883H59.7882V25.1708C59.6439 24.9715 59.4743 24.7913 59.2836 24.6348C59.0414 24.4439 58.7676 24.2961 58.4742 24.1981C58.1475 24.0872 57.8039 24.0326 57.4584 24.0365C56.8386 24.0268 56.23 24.2001 55.7105 24.5343C55.1915 24.8741 54.7725 25.3433 54.4959 25.8946C54.1881 26.5107 54.0347 27.1911 54.0487 27.8781C54.0357 28.5673 54.187 29.2499 54.4904 29.8705C54.7605 30.4232 55.172 30.8966 55.684 31.2438C56.1819 31.5793 56.772 31.7557 57.3745 31.7492C57.7125 31.7508 58.0485 31.6962 58.3682 31.5877C58.6707 31.4849 58.9559 31.3377 59.214 31.151C59.4207 31.0038 59.6064 30.8297 59.7661 30.6335V31.6062H61.7911Z" fill="#222222"/>
<path d="M45.9044 12.2673C46.0345 11.9047 46.2398 11.573 46.5073 11.2936C46.769 11.02 47.0832 10.8007 47.4315 10.6484C47.7945 10.4915 48.187 10.4126 48.5831 10.4169C48.9813 10.4135 49.3758 10.4923 49.7414 10.6484C50.0891 10.7973 50.401 11.0171 50.6567 11.2936C50.9182 11.5778 51.1231 11.9081 51.2607 12.2673C51.5547 13.0644 51.5547 13.9385 51.2607 14.7356C51.1222 15.0971 50.9175 15.4301 50.6567 15.7181C50.4034 15.9972 50.0908 16.2175 49.7414 16.3633C49.3747 16.5148 48.9806 16.591 48.5831 16.5871C48.188 16.5912 47.7964 16.5147 47.4326 16.3622C47.0824 16.2141 46.7673 15.9955 46.5073 15.7203C46.2404 15.4371 46.0353 15.1027 45.9044 14.7378C45.6291 13.9376 45.6291 13.0698 45.9044 12.2695V12.2673ZM44.9515 17.1395C45.4134 17.5942 45.9616 17.9541 46.5647 18.1984C47.8636 18.7021 49.307 18.7021 50.606 18.1984C51.2069 17.9543 51.7527 17.5944 52.2114 17.1395C52.6724 16.6791 53.0329 16.1299 53.2703 15.526C53.7623 14.2235 53.7623 12.7893 53.2703 11.4868C53.0326 10.8834 52.6722 10.3346 52.2114 9.87438C51.7536 9.4168 51.2077 9.05452 50.606 8.80891C49.3073 8.30393 47.8634 8.30393 46.5647 8.80891C45.9602 9.0536 45.4116 9.41593 44.9515 9.87438C44.4922 10.333 44.1322 10.8794 43.8937 11.4802C43.641 12.1262 43.5155 12.8139 43.5238 13.5064C43.5173 14.1988 43.6428 14.8861 43.8937 15.5326C44.1293 16.1352 44.4896 16.6825 44.9515 17.1395Z" fill="#222222"/>
<path d="M56.6656 13.6C56.8148 13.2958 57.0435 13.0365 57.3281 12.849C57.6181 12.6643 57.9571 12.5693 58.302 12.576C58.6531 12.5691 58.9985 12.664 59.2957 12.849C59.5825 13.034 59.8118 13.294 59.9582 13.6C60.1204 13.9466 60.2004 14.3252 60.1923 14.707C60.2002 15.096 60.1195 15.4818 59.956 15.8358C59.8124 16.1437 59.5825 16.4043 59.2935 16.5869C58.9948 16.7678 58.6499 16.8603 58.2997 16.8532C57.9558 16.8601 57.6173 16.7675 57.3259 16.5869C57.0391 16.4018 56.8098 16.1418 56.6634 15.8358C56.4958 15.483 56.4134 15.0966 56.4227 14.707C56.4143 14.3244 56.4971 13.9451 56.6645 13.6H56.6656ZM56.0539 18.0759C56.553 18.4109 57.1444 18.5859 57.7477 18.577C58.0857 18.5788 58.4216 18.5246 58.7414 18.4165C59.0437 18.314 59.3285 18.1668 59.5861 17.9799C59.7922 17.832 59.9779 17.658 60.1382 17.4624V18.4351H62.1643V11.0193H60.1603V12.0018C60.0164 11.8025 59.8471 11.6224 59.6568 11.4658C59.4141 11.2752 59.1399 11.1274 58.8463 11.0291C58.5196 10.9181 58.1759 10.8635 57.8305 10.8676C57.2111 10.858 56.6029 11.0313 56.0837 11.3654C55.5647 11.7051 55.1457 12.1743 54.8691 12.7256C54.5605 13.3416 54.4068 14.022 54.4208 14.7092C54.4077 15.398 54.559 16.0802 54.8625 16.7004C55.1326 17.2534 55.544 17.7272 56.0561 18.0748" fill="#222222"/>
<path d="M65.4118 16.1165L66.0986 15.4812L68.4803 18.4374H70.9095L67.4347 14.2454L70.9238 11.0195H68.2672L65.4118 13.872V8.06104H63.3945V18.4374H65.4118V16.1165Z" fill="#222222"/>
<path d="M15.5279 11.0663C15.2673 11.1046 15.031 11.2126 14.7727 11.1886C14.7318 11.1886 14.6899 11.2148 14.6479 11.2257C14.4271 11.2825 14.2184 11.3895 13.9766 11.3698C13.8779 11.3763 13.7818 11.4038 13.695 11.4506C13.5106 11.5227 13.3317 11.6067 13.1429 11.6766C12.5523 11.8836 11.9729 12.1209 11.4072 12.3873C11.0627 12.5609 10.7546 12.7857 10.4134 12.9593C10.3461 12.9942 10.2842 13.0685 10.2147 13.0685C9.98611 13.0892 9.84146 13.2442 9.68026 13.3709C9.38655 13.6001 9.10057 13.8392 8.80576 14.0663C8.71301 14.1383 8.59265 14.1754 8.50211 14.2486C8.28128 14.4287 8.06044 14.6121 7.85949 14.8119C7.45426 15.2093 7.03247 15.5924 6.66036 16.0226C6.36496 16.3446 6.09477 16.6884 5.85211 17.0509C5.83426 17.0914 5.8092 17.1284 5.77813 17.1601C5.50982 17.3522 5.40161 17.6666 5.19403 17.9035C5.04497 18.0716 5.01074 18.2954 4.89259 18.4788C4.75788 18.6873 4.63642 18.9035 4.49288 19.1076C4.39168 19.25 4.30826 19.404 4.24445 19.5661C4.16658 19.7905 4.07665 20.0106 3.97503 20.2255C3.87393 20.4552 3.78692 20.6907 3.71445 20.9307C3.59188 21.2692 3.46711 21.6054 3.35007 21.9449C3.3237 22.0396 3.30341 22.1359 3.28934 22.2331C3.18665 22.7571 3.07734 23.28 2.98238 23.8051C2.94926 23.9864 2.94926 24.1719 2.9338 24.3652C3.15247 24.4454 3.37785 24.5064 3.60734 24.5475C3.8613 24.6141 4.11967 24.6632 4.38026 24.7276C4.71151 24.8106 5.04276 24.9034 5.36738 24.9907C5.58822 25.0486 5.61251 25.0682 5.62576 25.3029C5.6379 25.5103 5.64674 25.7178 5.63901 25.9252C5.60772 26.5569 5.62507 27.1901 5.6909 27.8192C5.72513 28.1216 5.72955 28.4284 5.75494 28.733C5.77261 28.9382 5.79911 29.1434 5.82782 29.3487C5.83886 29.4338 5.8742 29.5157 5.88634 29.6019C5.91947 29.8203 6.01774 30.0146 6.0078 30.2417C6.00228 30.3628 6.07957 30.4884 6.11822 30.6107C6.15686 30.7329 6.21759 30.829 6.18005 30.9578C6.17615 30.968 6.17615 30.9793 6.18005 30.9895C6.28644 31.2732 6.36808 31.5653 6.42407 31.8628C6.48259 32.115 6.60957 32.3475 6.63055 32.6139C6.65185 32.7096 6.69158 32.8004 6.74759 32.8814C6.88863 33.151 7.01577 33.4276 7.12853 33.7099C7.28642 34.1018 7.4929 34.4741 7.68061 34.8573C7.81974 35.1411 7.95886 35.4239 8.09688 35.7077C8.11315 35.7597 8.13422 35.8102 8.15982 35.8584C8.4458 36.2306 8.63351 36.6673 8.93274 37.0352C9.03432 37.1629 9.12376 37.3005 9.21871 37.4336C9.22524 37.4423 9.23114 37.4514 9.23638 37.4609C9.29269 37.5625 9.25405 37.6956 9.3733 37.7808C9.46573 37.8573 9.55041 37.9425 9.62615 38.0352C9.65707 38.0668 9.70013 38.0941 9.71449 38.1312C9.84146 38.4729 10.1374 38.6836 10.3549 38.9544C10.4279 39.0348 10.4926 39.1222 10.5481 39.2153C10.6136 39.3151 10.692 39.4061 10.7811 39.486C10.8572 39.5507 10.9254 39.624 10.9843 39.7043C11.1058 39.8985 11.2618 40.0694 11.4447 40.2087C11.7053 40.4412 11.9405 40.7021 12.1944 40.9434C12.4252 41.1617 12.667 41.367 12.9044 41.5777C12.9364 41.6071 12.9961 41.6224 13.0071 41.6563C13.0932 41.9161 13.3615 41.9608 13.5404 42.1104C13.6906 42.2359 13.8717 42.3287 13.9821 42.499C14.0361 42.5678 14.1057 42.6232 14.1853 42.6606C14.5386 42.8615 14.8698 43.0973 15.2121 43.3156C15.5588 43.5468 15.9215 43.7536 16.2975 43.9346C16.6155 44.082 16.9247 44.2479 17.2493 44.3822C17.4425 44.4619 17.6424 44.5285 17.8279 44.6223C18.1448 44.7839 18.4495 44.7206 18.7499 44.5929C18.931 44.5154 19.1021 44.4149 19.2777 44.3243C19.6774 44.1191 20.0782 43.9149 20.4768 43.7053C20.553 43.666 20.617 43.6038 20.691 43.5591C20.7811 43.4985 20.8764 43.4459 20.9759 43.4019C21.0875 43.3579 21.1935 43.3011 21.2917 43.2326C21.4728 43.1104 21.6704 43.0143 21.8592 42.9051C22.0915 42.7807 22.3111 42.6345 22.5151 42.4685C22.5811 42.412 22.6556 42.366 22.7359 42.332C22.8362 42.2874 22.9226 42.2174 22.9866 42.129C23.0459 42.0653 23.1131 42.0092 23.1864 41.9619C23.3863 41.8069 23.5872 41.6552 23.786 41.5012C23.8887 41.4205 23.9891 41.3364 24.0896 41.2523C24.1262 41.2288 24.1574 41.1979 24.1813 41.1617C24.2674 40.9871 24.433 40.8921 24.5699 40.7676C24.7069 40.6432 24.8416 40.5133 24.973 40.3834C25.0514 40.3069 25.1187 40.2185 25.2004 40.1454C25.3003 40.0591 25.3824 39.9546 25.4422 39.8375C25.4817 39.7582 25.5322 39.6847 25.5924 39.6192C25.8232 39.3561 26.0584 39.0974 26.2902 38.8354C26.3292 38.7974 26.3613 38.7531 26.3852 38.7044C26.4797 38.4831 26.62 38.2838 26.797 38.1192C26.9476 37.9465 27.0637 37.7472 27.1393 37.5319C27.1899 37.3888 27.2646 37.2552 27.3602 37.1367C27.4668 37.0258 27.5462 36.8921 27.592 36.7459C27.6158 36.6735 27.6484 36.6042 27.6892 36.5396C27.8924 36.1793 28.0978 35.8201 28.3009 35.4599C28.3926 35.2983 28.4831 35.1411 28.4478 34.937C28.4499 34.8504 28.4726 34.7655 28.514 34.6892C28.5471 34.5975 28.5869 34.5079 28.6244 34.4195C28.7923 34.0516 28.8453 33.6488 28.9756 33.27C29.1919 32.6206 29.3247 31.9468 29.3709 31.2646C29.4106 30.7417 29.5299 30.2329 29.5917 29.7144C29.5917 29.7046 29.6016 29.6958 29.616 29.6685C29.6645 29.6376 29.7189 29.6166 29.7758 29.6069C29.8327 29.5971 29.891 29.5988 29.9472 29.6118C30.3083 29.6729 30.6716 29.6118 31.0326 29.6325C31.3507 29.6564 31.6703 29.6523 31.9877 29.6205C32.0572 29.6216 32.1262 29.6316 32.1931 29.65C32.2693 29.8407 32.3021 30.0457 32.2892 30.2504C32.2674 30.5541 32.2612 30.8587 32.2704 31.163C32.2704 31.1958 32.277 31.2384 32.2605 31.2591C32.1291 31.4229 32.1953 31.6106 32.1898 31.7886C32.181 32.0833 32.1898 32.3781 32.0529 32.6543C32.024 32.7236 32.0083 32.7976 32.0065 32.8726C31.9795 33.1429 31.9319 33.4107 31.8641 33.6739C31.7835 34.0374 31.6167 34.3726 31.5439 34.7361C31.5408 34.7579 31.5329 34.7788 31.5207 34.7972C31.3319 35.0254 31.3263 35.3245 31.2115 35.5811C31.0834 35.8693 30.962 36.1608 30.8339 36.4544C30.7864 36.5636 30.7124 36.6629 30.6749 36.7754C30.5711 37.0876 30.337 37.3332 30.2332 37.6487C30.1515 37.902 29.9848 38.1061 29.8567 38.3321C29.7529 38.5475 29.6211 38.7486 29.4647 38.9303C29.3179 39.0821 29.2439 39.3026 29.1335 39.4904C29.0963 39.5683 29.0425 39.6372 28.9756 39.6923C28.7633 39.8459 28.5911 40.0472 28.4732 40.2797C28.3767 40.4395 28.2658 40.5904 28.1419 40.7305C27.8482 41.082 27.5589 41.439 27.2332 41.7621C27.0245 41.9696 26.86 42.2185 26.6193 42.3975C26.5801 42.4356 26.5456 42.4781 26.5166 42.5241C26.3037 42.7723 26.0722 43.0044 25.8243 43.2185C25.7881 43.2598 25.7432 43.293 25.6929 43.3156C25.4952 43.3757 25.3616 43.5219 25.2104 43.6431C25.0083 43.8101 24.7919 43.9608 24.5832 44.1213C24.4728 44.2086 24.3624 44.3036 24.2519 44.3931C24.2011 44.4335 24.1504 44.5023 24.094 44.5023C23.8931 44.523 23.7628 44.6617 23.6049 44.7588C23.309 44.9455 23.0296 45.1595 22.737 45.3527C22.5757 45.464 22.405 45.5615 22.2269 45.6442C21.8956 45.7904 21.5953 45.999 21.263 46.1365C20.9803 46.2533 20.7043 46.3821 20.4227 46.5011C20.2317 46.5819 20.0484 46.6813 19.8618 46.773C19.7959 46.8139 19.7273 46.8504 19.6564 46.8821C19.3958 46.9673 19.1319 47.0459 18.8702 47.1278C18.8168 47.141 18.7652 47.1608 18.7168 47.1867C18.6074 47.2595 18.4774 47.2958 18.3458 47.2904C18.2807 47.2832 18.2149 47.2946 18.1562 47.3232C18.0975 47.3519 18.0483 47.3965 18.0145 47.452C17.7262 47.4166 17.4478 47.3254 17.1952 47.1834C16.9744 47.0632 16.7407 46.9676 16.4985 46.8985C16.226 46.8103 15.9648 46.6912 15.72 46.5437C15.5163 46.4134 15.2981 46.3068 15.0697 46.226C14.9892 46.1938 14.9146 46.1488 14.8489 46.0928C14.7814 46.0375 14.7009 46 14.6148 45.9837C14.4957 45.9589 14.3867 45.9 14.3012 45.8145C14.1785 45.6919 14.0266 45.6018 13.8595 45.5525C13.7693 45.5135 13.6867 45.4592 13.6155 45.392C13.4455 45.2741 13.2986 45.1278 13.0833 45.0776C12.9931 45.0391 12.9119 44.9826 12.8448 44.9116C12.6648 44.7675 12.5069 44.5841 12.3071 44.4804C12.0827 44.3443 11.8666 44.1952 11.66 44.0339C11.3025 43.7782 10.9699 43.4903 10.6663 43.1737C10.4162 42.9 10.1408 42.6501 9.84367 42.427C9.79908 42.3949 9.758 42.3583 9.72111 42.3178C9.46053 42.0394 9.19884 41.76 8.94046 41.4783C8.89996 41.4282 8.86306 41.3753 8.83005 41.32C8.80144 41.2612 8.76546 41.2062 8.72294 41.1563C8.50321 40.9592 8.3052 40.7396 8.13222 40.5013C7.94782 40.2731 7.73913 40.0646 7.60663 39.7939C7.59668 39.7625 7.5797 39.7338 7.55694 39.7098C7.29305 39.5209 7.22569 39.2065 7.05455 38.9576C6.94413 38.7895 6.84476 38.6017 6.66588 38.4784C6.60163 38.4303 6.54979 38.3678 6.51461 38.2961C6.41634 38.1149 6.32911 37.9271 6.23194 37.7448C6.14596 37.5679 6.04821 37.3969 5.93934 37.2328C5.72498 36.9156 5.54019 36.5798 5.38726 36.2295C5.3199 36.092 5.24592 35.9588 5.17636 35.8223C4.98313 35.4468 4.76782 35.0811 4.67065 34.6619C4.62737 34.5289 4.57078 34.4006 4.50172 34.2787C4.44949 34.1721 4.40305 34.0627 4.36259 33.9512C4.2853 33.7154 4.25217 33.4643 4.08655 33.2613C4.05276 33.2054 4.02921 33.144 4.01699 33.08C3.89553 32.7209 3.77297 32.3617 3.65372 32.0015C3.61286 31.877 3.57974 31.7504 3.5433 31.6237C3.39755 31.0888 3.21978 30.5615 3.14249 30.0091C3.13034 29.924 3.1193 29.8377 3.11378 29.7504C3.10814 29.5761 3.07956 29.4033 3.02876 29.2362C3.00123 29.1423 2.98419 29.0456 2.97797 28.948C2.94926 28.6566 2.92717 28.364 2.90288 28.0747C2.90245 28.0529 2.89911 28.0312 2.89295 28.0103C2.79471 27.7436 2.75701 27.4589 2.78253 27.1762C2.78253 27.1686 2.77038 27.1588 2.75272 27.1326C2.54624 27.0845 2.3243 27.0234 2.10126 26.9819C1.46636 26.8498 0.831467 26.7232 0.196571 26.5933C0.0453002 26.5627 0.00775852 26.5256 0.00223768 26.3749C-0.00396079 26.2882 0.0027354 26.201 0.0221127 26.1162C0.109459 25.8336 0.132831 25.5354 0.090571 25.2429C0.0769688 25.1548 0.0837646 25.0649 0.110446 24.9798C0.2043 24.6719 0.200988 24.3543 0.220863 24.0398C0.259275 23.6391 0.325684 23.2416 0.419613 22.8499C0.488071 22.4995 0.507946 22.1381 0.653696 21.8052C0.695551 21.3606 0.828147 20.9291 1.04347 20.5367C1.10377 20.421 1.13662 20.2934 1.13953 20.1633C1.14756 19.9341 1.21608 19.7109 1.33828 19.5159C1.46279 19.3126 1.56319 19.0957 1.63751 18.8697C1.73136 18.5946 1.84288 18.3238 1.96213 18.0542C2.14627 17.672 2.35121 17.2999 2.57605 16.9396C2.65523 16.8219 2.74268 16.7099 2.83774 16.6044C2.86807 16.5712 2.89438 16.5345 2.91613 16.4953C3.08397 16.1132 3.34124 15.7868 3.57311 15.4451C3.63841 15.3454 3.70995 15.2499 3.78732 15.159C3.94632 14.9789 4.11857 14.8053 4.27647 14.6285C4.30921 14.5992 4.33649 14.5645 4.35707 14.5259C4.45203 14.2912 4.64195 14.1416 4.83297 13.9942C4.93925 13.9025 5.03182 13.7962 5.1079 13.6787C5.2584 13.4937 5.42423 13.3213 5.60367 13.1635C5.69753 13.0718 5.81678 13.0052 5.90401 12.908C6.07299 12.7354 6.25781 12.5786 6.45609 12.4397C6.67692 12.265 6.91322 12.098 7.11859 11.9048C7.40241 11.6478 7.72362 11.4343 8.07149 11.2716C8.1013 11.2574 8.13994 11.2454 8.15319 11.2203C8.25257 11.0423 8.42924 10.9801 8.60369 10.9113C8.66638 10.8893 8.7244 10.856 8.77484 10.8131C8.98242 10.6177 9.25294 10.5533 9.51021 10.4594C9.7119 10.403 9.89979 10.3064 10.0623 10.1755C10.1128 10.133 10.1708 10.1 10.2334 10.0784C10.5311 9.97089 10.8198 9.84059 11.0969 9.68864C11.312 9.57771 11.5446 9.50387 11.7848 9.47031C11.8835 9.46354 11.9773 9.42522 12.052 9.36114C12.1426 9.27839 12.26 9.23038 12.3833 9.22577C12.6363 9.21134 12.8832 9.14241 13.1065 9.02381C13.1917 8.97917 13.2861 8.95452 13.3825 8.95176C13.7125 8.9329 14.0388 8.87387 14.3542 8.776C14.385 8.76421 14.4173 8.75686 14.4503 8.75417C14.7638 8.77273 15.052 8.63299 15.3601 8.61334C15.5024 8.59671 15.6436 8.57192 15.783 8.53911C15.8023 8.48314 15.8174 8.42586 15.8283 8.36771C15.8559 8.10789 15.9696 7.871 16.0358 7.62101C16.0578 7.56013 16.0766 7.49819 16.0922 7.43542C16.186 6.83827 16.4113 6.28807 16.6442 5.73131C16.8772 5.17456 17.1577 4.64946 17.405 4.1058C17.4213 4.06601 17.444 4.02913 17.4724 3.99663C17.6777 3.79031 17.7837 3.52503 17.924 3.2794C17.9693 3.19253 18.0274 3.11271 18.0962 3.04251C18.2764 2.8824 18.426 2.6916 18.5379 2.4792C18.6102 2.33285 18.702 2.19665 18.8106 2.07419C19.1264 1.72558 19.4481 1.38316 19.7757 1.04692C19.8971 0.921377 20.0373 0.814392 20.1698 0.698674C20.2803 0.605881 20.3907 0.517456 20.4889 0.420296C20.6623 0.255453 20.8312 0.0829675 21.0896 0C21.2301 0.0423484 21.3512 0.131944 21.4319 0.253269C21.6627 0.589506 21.9641 0.862426 22.2479 1.15172C22.5004 1.40936 22.7503 1.67063 22.9976 1.93555C23.0457 1.99449 23.0892 2.05689 23.1279 2.12222C23.1177 2.18729 23.0947 2.24973 23.06 2.30594C23.0253 2.36215 22.9797 2.41102 22.9258 2.44973C22.7823 2.56654 22.641 2.6888 22.4974 2.8067C22.4605 2.8474 22.4148 2.87947 22.3638 2.90059C22.1883 2.93661 22.09 3.0698 21.9718 3.18333C21.7587 3.38748 21.5832 3.62765 21.3314 3.79358C21.2621 3.84794 21.2027 3.91367 21.1559 3.9879C21.0491 4.14009 20.9233 4.27836 20.7815 4.39946C20.7081 4.46567 20.6485 4.5454 20.606 4.63417C20.4066 4.99708 20.1888 5.34978 19.9534 5.69092C19.7787 5.95533 19.6339 6.23796 19.5217 6.53369C19.5062 6.57409 19.5051 6.63304 19.4764 6.65378C19.2633 6.80552 19.2799 7.05442 19.2059 7.26294C19.1473 7.48283 19.0632 7.69529 18.9553 7.89611C18.8448 8.0806 18.8636 8.31313 18.8305 8.55112C19.0513 8.52492 19.2423 8.58823 19.4356 8.51509C19.4712 8.50705 19.5082 8.50705 19.5438 8.51509C19.8828 8.53256 20.2239 8.53583 20.5618 8.57404C20.9869 8.62317 21.4087 8.69958 21.8316 8.76727C21.8956 8.78302 21.9584 8.80346 22.0193 8.8284C22.1194 8.87307 22.2248 8.90534 22.3329 8.92447C22.63 8.93789 22.921 9.01225 23.1875 9.14281C23.2295 9.15622 23.2737 9.16177 23.3178 9.15918C23.3505 9.15532 23.3834 9.15532 23.4161 9.15918C23.5844 9.23612 23.7601 9.29611 23.9406 9.33822C24.1138 9.36437 24.281 9.42093 24.4341 9.50524C24.7058 9.64825 24.9796 9.7869 25.2556 9.92336C25.3274 9.95408 25.4012 9.97998 25.4765 10.0009C25.7313 10.0717 25.9717 10.1862 26.1864 10.3393C26.2504 10.3814 26.3181 10.418 26.3885 10.4485C26.4923 10.5074 26.6005 10.5576 26.6988 10.6308C26.7662 10.6862 26.8467 10.7238 26.9329 10.7399C27.0514 10.7653 27.1602 10.8236 27.2464 10.908C27.5689 11.169 27.9001 11.4211 28.228 11.6722C28.2623 11.6995 28.2943 11.741 28.3385 11.7486C28.6024 11.8 28.7735 11.991 28.9711 12.1449C29.0219 12.1853 29.0816 12.2082 29.1368 12.2475C29.2481 12.3177 29.3507 12.4005 29.4426 12.4943C29.6244 12.6986 29.8215 12.8891 30.0323 13.0641C30.1625 13.1798 30.2818 13.3076 30.401 13.4342C30.5091 13.5571 30.6314 13.667 30.7654 13.7617C30.794 13.7783 30.8191 13.8002 30.8394 13.8261C31.1088 14.1984 31.4412 14.5171 31.747 14.8577C31.7883 14.9077 31.8252 14.961 31.8574 15.0171C31.9966 15.2355 32.1335 15.4625 32.2715 15.6852C32.2854 15.7148 32.3053 15.7412 32.33 15.7627C32.6613 15.9614 32.7717 16.3151 32.9638 16.6175C32.9925 16.6634 33.0036 16.7201 33.0345 16.7638C33.2524 17.0782 33.4301 17.4181 33.5634 17.7758C33.5796 17.8281 33.6067 17.8764 33.6429 17.9177C33.9399 18.2179 34.0459 18.612 34.1828 18.9897C34.2236 19.1232 34.276 19.2529 34.3396 19.3773C34.431 19.5502 34.5007 19.7335 34.5472 19.9231C34.6157 20.1644 34.6698 20.4089 34.7205 20.6546C34.7479 20.7815 34.7909 20.9047 34.8486 21.0214C34.9414 21.2157 35.0606 21.4078 35.0363 21.6392C35.0349 21.6723 35.0402 21.7054 35.0518 21.7364C35.161 22.0786 35.2165 22.4354 35.2163 22.7942C35.2163 22.8696 35.2461 22.9438 35.2528 23.0202C35.2671 23.1709 35.2748 23.3226 35.2848 23.4744C35.2826 23.4961 35.2826 23.5181 35.2848 23.5399C35.3477 23.7844 35.319 24.0355 35.3444 24.2822C35.3735 24.4646 35.3772 24.6501 35.3554 24.8335C35.3401 24.9855 35.3331 25.1382 35.3345 25.2909C35.3157 25.5606 35.2925 25.8302 35.2682 26.126C35.0065 26.2865 34.7272 26.4535 34.3849 26.4535C34.3518 26.4543 34.319 26.4602 34.2877 26.471C33.6385 26.7024 32.9528 26.7407 32.2803 26.8444C32.0863 26.8768 31.8887 26.883 31.6929 26.8629C31.4519 26.853 31.2106 26.861 30.9708 26.8869C30.7516 26.9077 30.5305 26.8955 30.3149 26.8509C30.153 26.8185 29.9871 26.8089 29.8225 26.8225C29.5795 26.8291 29.3399 26.852 29.107 26.7581C29.0643 26.7478 29.0206 26.742 28.9767 26.7407C28.6774 26.7003 28.3594 26.7407 28.0933 26.554C28.079 26.5431 28.0503 26.554 28.0282 26.554C27.7876 26.5442 27.5493 26.5034 27.3193 26.4328C26.7455 26.2792 26.1814 26.0922 25.6299 25.8728C25.4019 25.7669 25.1674 25.6754 24.9277 25.5988C24.906 25.5945 24.8853 25.586 24.867 25.5737C24.4827 25.2724 23.998 25.1632 23.585 24.9186C23.3233 24.7593 23.0804 24.5726 22.8121 24.4208C22.4003 24.185 22.069 23.8444 21.6792 23.5792C21.3367 23.3427 21.0102 23.0841 20.702 22.8052C20.4337 22.5661 20.15 22.3368 19.9479 22.0323C19.8893 21.9669 19.8258 21.9059 19.758 21.8499C19.5968 21.6731 19.4157 21.5126 19.3163 21.2877C19.2806 21.2327 19.2367 21.1834 19.186 21.1414C18.9773 20.9056 18.7576 20.6786 18.6262 20.3849C18.6019 20.3314 18.529 20.2998 18.4915 20.2484C18.3212 20.0351 18.1627 19.8128 18.0167 19.5825C17.7639 19.1459 17.5121 18.7157 17.3034 18.2627C17.1444 17.9188 16.9479 17.5913 16.8397 17.2201C16.7502 16.909 16.5846 16.6197 16.4532 16.3206C16.4194 16.2646 16.3969 16.2027 16.387 16.1383C16.387 15.8697 16.271 15.6394 16.1838 15.3948C16.0238 14.9769 15.9191 14.5402 15.8724 14.0957C15.8724 14.0423 15.8503 13.9866 15.8404 13.9364C15.794 13.6802 15.7484 13.4255 15.7035 13.1722C15.6974 13.1511 15.6974 13.1288 15.7035 13.1078C15.7984 12.92 15.7035 12.7475 15.6659 12.5696C15.6237 12.3908 15.6055 12.2073 15.6118 12.0237C15.6337 11.7075 15.6047 11.3899 15.5257 11.0827L15.5279 11.0663ZM18.5666 11.1253C18.5087 11.2986 18.4888 11.482 18.5081 11.6635C18.529 11.9462 18.5235 12.2323 18.571 12.5106C18.6494 12.9822 18.6339 13.468 18.7918 13.9298C18.8515 14.1078 18.836 14.2966 18.8813 14.4757C19.0152 15.0152 19.1981 15.5417 19.4278 16.0488C19.527 16.2672 19.6136 16.491 19.6873 16.7191C19.7061 16.7905 19.7359 16.8586 19.7757 16.921C19.8761 17.0629 19.9567 17.219 20.0451 17.3686C20.0175 17.564 20.1665 17.6841 20.2493 17.8315C20.2924 17.9079 20.352 17.9745 20.3874 18.0498C20.5185 18.3075 20.6761 18.5511 20.8577 18.7769C21.1128 19.1295 21.3966 19.4635 21.6671 19.8063C21.6994 19.8379 21.7259 19.8749 21.7455 19.9155C21.8161 20.124 21.9884 20.2484 22.1397 20.3893C22.3484 20.5814 22.5703 20.7615 22.716 21.0126C22.74 21.048 22.7703 21.0787 22.8055 21.1032C23.1224 21.3554 23.4404 21.6054 23.7584 21.8565C24.2884 22.2628 24.847 22.6313 25.4301 22.9591C25.7713 23.1556 26.1478 23.2866 26.4658 23.5268C26.524 23.5578 26.5865 23.5803 26.6513 23.5934C26.8107 23.6349 26.9665 23.6889 27.1173 23.7549C27.2495 23.8321 27.394 23.8867 27.5446 23.9165C27.6068 23.9355 27.6668 23.9611 27.7234 23.9929C27.7905 24.0278 27.8603 24.0574 27.9321 24.0813C28.1243 24.1283 28.3186 24.173 28.5129 24.2069C28.8386 24.2626 29.1644 24.3248 29.4923 24.3542C29.743 24.3761 29.9815 24.4634 30.2387 24.4547C30.57 24.4449 30.8902 24.5387 31.2236 24.4907C31.4066 24.4481 31.5965 24.4437 31.7813 24.4776C31.8361 24.4799 31.8909 24.4732 31.9436 24.458C32.0182 24.4416 32.0949 24.4365 32.171 24.4427C32.2474 24.4576 32.326 24.4568 32.402 24.4403C32.478 24.4238 32.5498 24.3919 32.6127 24.3466C32.6166 24.2921 32.6166 24.2374 32.6127 24.1829C32.5658 23.9118 32.5524 23.6361 32.5729 23.3619C32.5762 23.3074 32.5718 23.2526 32.5597 23.1993C32.4912 22.8139 32.425 22.4285 32.3466 22.0454C32.2947 21.7888 32.2295 21.5355 32.1644 21.2812C32.1291 21.1436 32.0838 21.0093 32.0407 20.874C31.9338 20.4854 31.7942 20.1064 31.6234 19.7408C31.5934 19.6953 31.5738 19.6439 31.5659 19.5902C31.5566 19.4819 31.5185 19.3779 31.4555 19.2889C31.2347 18.8871 31.0061 18.4898 30.793 18.088C30.6976 17.8931 30.5794 17.7099 30.4408 17.5422C30.3658 17.4626 30.2989 17.3759 30.2409 17.2835C30.0201 16.9025 29.7319 16.5739 29.4835 16.2147C29.3909 16.0674 29.2697 15.9398 29.1268 15.8392C29.0165 15.766 28.921 15.673 28.8453 15.5651C28.588 15.2049 28.2269 14.9483 27.9156 14.6416C27.7223 14.4527 27.4894 14.3054 27.2851 14.123C27.0576 13.9222 26.8092 13.7388 26.5685 13.551C26.4104 13.4326 26.2456 13.3233 26.0749 13.2235C25.6001 12.9309 25.1463 12.6023 24.6218 12.3938C24.4613 12.3504 24.3144 12.2678 24.1945 12.1537C24.172 12.1291 24.1423 12.1123 24.1095 12.1056C23.7877 12.0354 23.4774 11.9211 23.1875 11.7661C23.1588 11.7519 23.1235 11.7519 23.0926 11.7399C23.0394 11.7268 22.9889 11.7047 22.9435 11.6744C22.8353 11.5989 22.7096 11.5516 22.578 11.5369C22.255 11.4762 21.936 11.396 21.6229 11.2967C21.391 11.2148 21.1238 11.2388 20.8931 11.1264C20.4856 11.1264 20.0837 11.0369 19.6785 11.0696C19.5144 11.0871 19.349 11.0871 19.1849 11.0696C18.9813 11.0457 18.7749 11.0598 18.5765 11.1111" fill="#222222"/>
</svg>
